<svg width="1015" height="223" viewBox="0 0 1015 223" fill="none" xmlns="http://www.w3.org/2000/svg">
<g clip-path="url(#clip0_216_12)">
<path d="M103.516 0H62.2198V157.477C62.2198 176.198 60.8432 181.704 51.758 181.704C42.6728 181.704 41.2963 176.198 41.2963 157.477V143.711H0V160.23C0 204.554 18.4457 223 51.758 223C85.0704 223 103.516 204.554 103.516 160.23V0Z" fill="#62B4FF"/>
<path d="M215.425 193.817V95.8074C215.425 56.9889 200.007 38.5432 163.942 38.5432C127.877 38.5432 111.909 56.9889 111.909 95.8074V101.314H153.205V95.8074C153.205 82.5926 155.958 77.0864 163.942 77.0864C171.375 77.0864 174.128 79.8395 174.128 90.0259C173.853 119.209 109.156 113.152 109.156 176.473C109.156 208.959 125.399 223 143.844 223C159.537 223 167.796 215.842 174.128 200.149C174.128 205.105 175.505 216.117 182.388 220.247H218.178C215.425 211.437 215.425 205.38 215.425 193.817ZM174.128 177.574C171.375 180.878 167.521 184.457 162.015 184.457C155.132 184.457 150.452 179.777 150.452 169.04C150.452 152.246 165.594 146.74 174.128 134.351V177.574Z" fill="#62B4FF"/>
<path d="M355.286 38.5432C339.043 38.5432 326.929 50.6568 322.249 62.7704C318.945 46.5272 311.512 38.5432 295.819 38.5432C279.025 38.5432 269.39 51.4827 264.985 61.3938V41.2963H223.688V220.247H264.985V93.0543C264.985 79.8395 268.564 77.0864 274.07 77.0864C279.576 77.0864 283.155 79.8395 283.155 93.0543V220.247H324.451V95.8074V93.0543C324.451 79.8395 328.03 77.0864 333.536 77.0864C339.043 77.0864 342.622 79.8395 342.622 93.0543V220.247H383.918V95.8074C383.918 56.9889 379.238 38.5432 355.286 38.5432Z" fill="#62B4FF"/>
<path d="M458.406 115.905C436.932 100.212 430.6 96.9086 430.6 87.5481C430.6 82.5926 432.802 77.0864 439.135 77.0864C445.467 77.0864 448.77 82.5926 448.77 98.5605H490.067C490.067 59.742 473.823 38.5432 439.135 38.5432C404.446 38.5432 389.304 59.742 389.304 87.5481C389.304 116.731 406.648 128.019 423.717 139.857C448.77 157.201 451.523 162.983 451.523 171.242C451.523 178.951 449.872 184.457 442.163 184.457C434.454 184.457 430.6 178.951 430.6 157.477H389.304C389.304 207.307 406.097 223 442.163 223C478.228 223 492.82 201.801 492.82 171.242C492.82 143.436 479.33 131.322 458.406 115.905Z" fill="#62B4FF"/>
<path d="M498.459 160.23C498.459 204.554 516.905 223 550.217 223C583.53 223 601.975 204.554 601.975 160.23V101.314C601.975 56.9889 583.53 38.5432 550.217 38.5432C516.905 38.5432 498.459 56.9889 498.459 101.314V160.23ZM539.756 160.23V101.314C539.756 82.5926 541.132 77.0864 550.217 77.0864C559.027 77.0864 560.679 82.5926 560.679 101.314V160.23C560.679 178.951 559.302 184.457 550.217 184.457C541.132 184.457 539.756 178.951 539.756 160.23Z" fill="#62B4FF"/>
<path d="M669.835 111.5H711.131V101.314C711.131 56.9889 692.685 38.5432 659.373 38.5432C626.06 38.5432 607.615 56.9889 607.615 101.314V160.23C607.615 204.554 626.06 223 659.373 223C692.685 223 711.131 204.554 711.131 160.23V150.043H669.835V160.23C669.835 178.951 668.458 184.457 659.373 184.457C650.288 184.457 648.911 178.951 648.911 160.23V101.314C648.911 82.5926 650.288 77.0864 659.373 77.0864C668.183 77.0864 669.835 82.5926 669.835 101.314V111.5Z" fill="#62B4FF"/>
<path d="M716.77 0V220.247H758.067V0H716.77Z" fill="#62B4FF"/>
<path d="M1014.05 79.8395V41.2963H970.002C984.593 37.7173 989.273 18.721 989.273 0H947.977C948.252 17.0691 944.949 36.616 928.706 41.2963V79.8395H945.224V160.23C945.224 204.554 952.657 220.247 991.476 220.247H1014.05V181.704H1002.49C992.027 181.704 986.52 178.951 986.52 160.23V79.8395H1014.05Z" fill="#62B4FF"/>
<path fill-rule="evenodd" clip-rule="evenodd" d="M783.39 41.298H826.063L798.807 130.773L826.063 220.249H783.39L757.786 130.773L783.39 41.298ZM915.167 41.298H913.79H872.494H831.198V82.5943H885.073L893.46 110.125H831.198V151.422H893.46L885.073 178.953H831.198V220.249H913.79V220.249H915.167L940.77 130.773L915.167 41.298Z" fill="#F5F4F4"/>
</g>
<defs>
<clipPath id="clip0_216_12">
<rect width="1015" height="223" fill="white"/>
</clipPath>
</defs>
</svg>
