<svg width="609" height="372" viewBox="0 0 609 372" fill="none" xmlns="http://www.w3.org/2000/svg">
<rect width="609" height="372" fill="white"/>
<rect x="11" y="37" width="159" height="234" rx="5" fill="#F0F0F0"/>
<rect x="283" y="37" width="316" height="234" rx="5" fill="#F0F0F0"/>
<path d="M540 62V108.5" stroke="#414141" stroke-width="2"/>
<path d="M136 315L136 249" stroke="#414141" stroke-width="2"/>
<path d="M149 221L180 154" stroke="#414141" stroke-width="2"/>
<path d="M224 201L224 157" stroke="#414141" stroke-width="2"/>
<path d="M224 317L224 251" stroke="#414141" stroke-width="2"/>
<path d="M464 317L464 239" stroke="#414141" stroke-width="2"/>
<rect x="112" y="315" width="380" height="47" rx="5" fill="#D37253"/>
<path d="M187.37 339.448H183.535L183.514 337.335H186.734C187.301 337.335 187.766 337.264 188.128 337.12C188.491 336.97 188.761 336.754 188.939 336.474C189.123 336.187 189.215 335.838 189.215 335.428C189.215 334.963 189.127 334.587 188.949 334.3C188.778 334.013 188.508 333.805 188.139 333.675C187.776 333.545 187.308 333.48 186.734 333.48H184.601V346H181.525V331.07H186.734C187.602 331.07 188.378 331.152 189.062 331.316C189.752 331.48 190.337 331.73 190.815 332.065C191.294 332.4 191.659 332.824 191.912 333.336C192.165 333.842 192.292 334.444 192.292 335.141C192.292 335.756 192.151 336.324 191.871 336.843C191.598 337.363 191.164 337.787 190.569 338.115C189.981 338.443 189.212 338.624 188.262 338.658L187.37 339.448ZM187.236 346H182.694L183.894 343.601H187.236C187.776 343.601 188.217 343.515 188.559 343.344C188.901 343.167 189.154 342.927 189.318 342.626C189.482 342.326 189.564 341.98 189.564 341.591C189.564 341.153 189.489 340.774 189.338 340.453C189.195 340.131 188.962 339.885 188.641 339.714C188.32 339.537 187.896 339.448 187.37 339.448H184.406L184.427 337.335H188.118L188.826 338.166C189.735 338.152 190.466 338.313 191.02 338.648C191.581 338.976 191.987 339.403 192.24 339.93C192.5 340.456 192.63 341.02 192.63 341.622C192.63 342.579 192.421 343.385 192.004 344.042C191.587 344.691 190.976 345.18 190.169 345.508C189.369 345.836 188.392 346 187.236 346ZM197.706 337.325V346H194.753V334.905H197.531L197.706 337.325ZM201.048 334.833L200.997 337.571C200.854 337.551 200.679 337.534 200.474 337.52C200.276 337.5 200.095 337.489 199.931 337.489C199.514 337.489 199.151 337.544 198.844 337.653C198.543 337.756 198.29 337.91 198.085 338.115C197.887 338.32 197.736 338.569 197.634 338.863C197.538 339.157 197.483 339.492 197.47 339.868L196.875 339.684C196.875 338.966 196.947 338.306 197.09 337.705C197.234 337.096 197.442 336.566 197.716 336.115C197.996 335.664 198.338 335.315 198.741 335.069C199.145 334.823 199.606 334.7 200.126 334.7C200.29 334.7 200.457 334.714 200.628 334.741C200.799 334.762 200.939 334.792 201.048 334.833ZM201.664 340.565V340.35C201.664 339.537 201.78 338.788 202.012 338.104C202.245 337.414 202.583 336.816 203.027 336.31C203.472 335.804 204.019 335.411 204.668 335.131C205.317 334.844 206.063 334.7 206.903 334.7C207.744 334.7 208.493 334.844 209.149 335.131C209.805 335.411 210.356 335.804 210.8 336.31C211.251 336.816 211.593 337.414 211.825 338.104C212.058 338.788 212.174 339.537 212.174 340.35V340.565C212.174 341.372 212.058 342.121 211.825 342.811C211.593 343.495 211.251 344.093 210.8 344.605C210.356 345.111 209.809 345.504 209.159 345.785C208.51 346.065 207.765 346.205 206.924 346.205C206.083 346.205 205.335 346.065 204.678 345.785C204.029 345.504 203.479 345.111 203.027 344.605C202.583 344.093 202.245 343.495 202.012 342.811C201.78 342.121 201.664 341.372 201.664 340.565ZM204.617 340.35V340.565C204.617 341.03 204.658 341.464 204.74 341.868C204.822 342.271 204.952 342.626 205.129 342.934C205.314 343.235 205.553 343.471 205.847 343.642C206.141 343.812 206.5 343.898 206.924 343.898C207.334 343.898 207.686 343.812 207.98 343.642C208.274 343.471 208.51 343.235 208.688 342.934C208.865 342.626 208.995 342.271 209.077 341.868C209.166 341.464 209.211 341.03 209.211 340.565V340.35C209.211 339.899 209.166 339.475 209.077 339.079C208.995 338.675 208.862 338.32 208.677 338.012C208.5 337.698 208.264 337.452 207.97 337.274C207.676 337.096 207.32 337.007 206.903 337.007C206.486 337.007 206.131 337.096 205.837 337.274C205.55 337.452 205.314 337.698 205.129 338.012C204.952 338.32 204.822 338.675 204.74 339.079C204.658 339.475 204.617 339.899 204.617 340.35ZM217.157 343.129L219.464 334.905H221.341L220.736 338.135L218.429 346H216.86L217.157 343.129ZM215.988 334.905L217.639 343.119L217.793 346H215.947L213.138 334.905H215.988ZM223.453 342.985L225.063 334.905H227.924L225.114 346H223.279L223.453 342.985ZM221.597 334.905L223.894 343.067L224.212 346H222.633L220.326 338.146L219.741 334.905H221.597ZM235.409 342.934C235.409 342.722 235.348 342.531 235.225 342.36C235.102 342.189 234.873 342.032 234.538 341.888C234.21 341.738 233.734 341.601 233.112 341.478C232.552 341.355 232.029 341.201 231.544 341.017C231.065 340.825 230.648 340.596 230.293 340.33C229.944 340.063 229.67 339.749 229.472 339.386C229.274 339.017 229.175 338.597 229.175 338.125C229.175 337.66 229.274 337.223 229.472 336.812C229.677 336.402 229.968 336.04 230.344 335.726C230.727 335.404 231.191 335.155 231.738 334.977C232.292 334.792 232.914 334.7 233.605 334.7C234.568 334.7 235.396 334.854 236.086 335.162C236.783 335.469 237.316 335.893 237.686 336.433C238.062 336.966 238.25 337.575 238.25 338.258H235.296C235.296 337.971 235.235 337.715 235.112 337.489C234.996 337.257 234.811 337.076 234.558 336.946C234.312 336.809 233.991 336.741 233.594 336.741C233.266 336.741 232.982 336.799 232.743 336.915C232.504 337.024 232.319 337.175 232.19 337.366C232.066 337.551 232.005 337.756 232.005 337.981C232.005 338.152 232.039 338.306 232.107 338.443C232.183 338.573 232.302 338.692 232.466 338.802C232.63 338.911 232.842 339.014 233.102 339.109C233.369 339.198 233.697 339.28 234.087 339.355C234.886 339.52 235.601 339.735 236.23 340.001C236.858 340.261 237.357 340.617 237.727 341.068C238.096 341.512 238.28 342.097 238.28 342.821C238.28 343.313 238.171 343.765 237.952 344.175C237.733 344.585 237.419 344.944 237.009 345.251C236.599 345.552 236.107 345.788 235.532 345.959C234.965 346.123 234.326 346.205 233.615 346.205C232.583 346.205 231.708 346.021 230.99 345.651C230.279 345.282 229.739 344.814 229.37 344.247C229.007 343.672 228.826 343.084 228.826 342.483H231.626C231.639 342.886 231.742 343.211 231.933 343.457C232.131 343.703 232.381 343.881 232.682 343.99C232.989 344.1 233.321 344.154 233.676 344.154C234.059 344.154 234.377 344.103 234.63 344C234.883 343.891 235.074 343.748 235.204 343.57C235.341 343.385 235.409 343.173 235.409 342.934ZM245.304 346.205C244.443 346.205 243.67 346.068 242.987 345.795C242.303 345.515 241.722 345.128 241.244 344.636C240.772 344.144 240.41 343.573 240.157 342.924C239.904 342.268 239.777 341.57 239.777 340.832V340.422C239.777 339.581 239.897 338.812 240.136 338.115C240.376 337.417 240.717 336.812 241.162 336.3C241.613 335.787 242.16 335.394 242.802 335.121C243.445 334.84 244.17 334.7 244.976 334.7C245.762 334.7 246.46 334.83 247.068 335.09C247.676 335.35 248.186 335.719 248.596 336.197C249.013 336.676 249.327 337.25 249.539 337.92C249.751 338.583 249.857 339.321 249.857 340.135V341.365H241.039V339.396H246.955V339.171C246.955 338.761 246.88 338.395 246.73 338.074C246.586 337.746 246.367 337.486 246.073 337.294C245.779 337.103 245.403 337.007 244.945 337.007C244.556 337.007 244.221 337.093 243.941 337.264C243.66 337.435 243.431 337.674 243.253 337.981C243.083 338.289 242.953 338.651 242.864 339.068C242.782 339.479 242.741 339.93 242.741 340.422V340.832C242.741 341.276 242.802 341.687 242.925 342.062C243.055 342.438 243.236 342.763 243.469 343.037C243.708 343.31 243.995 343.522 244.33 343.672C244.672 343.823 245.058 343.898 245.489 343.898C246.022 343.898 246.518 343.795 246.976 343.59C247.441 343.378 247.84 343.061 248.175 342.637L249.611 344.195C249.378 344.53 249.061 344.852 248.657 345.159C248.261 345.467 247.782 345.72 247.222 345.918C246.661 346.109 246.022 346.205 245.304 346.205ZM254.492 337.325V346H251.539V334.905H254.317L254.492 337.325ZM257.835 334.833L257.783 337.571C257.64 337.551 257.465 337.534 257.26 337.52C257.062 337.5 256.881 337.489 256.717 337.489C256.3 337.489 255.938 337.544 255.63 337.653C255.329 337.756 255.076 337.91 254.871 338.115C254.673 338.32 254.523 338.569 254.42 338.863C254.324 339.157 254.27 339.492 254.256 339.868L253.661 339.684C253.661 338.966 253.733 338.306 253.877 337.705C254.02 337.096 254.229 336.566 254.502 336.115C254.782 335.664 255.124 335.315 255.527 335.069C255.931 334.823 256.392 334.7 256.912 334.7C257.076 334.7 257.243 334.714 257.414 334.741C257.585 334.762 257.725 334.792 257.835 334.833ZM265.053 338.433V340.75H259.26V338.433H265.053ZM267.514 330.25H270.467V343.457L270.17 346H267.514V330.25ZM277.491 340.34V340.555C277.491 341.382 277.402 342.141 277.225 342.832C277.054 343.522 276.787 344.12 276.425 344.626C276.063 345.125 275.611 345.515 275.071 345.795C274.538 346.068 273.909 346.205 273.185 346.205C272.508 346.205 271.92 346.068 271.421 345.795C270.929 345.521 270.515 345.135 270.18 344.636C269.845 344.137 269.575 343.553 269.37 342.883C269.165 342.213 269.011 341.481 268.909 340.688V340.217C269.011 339.424 269.165 338.692 269.37 338.022C269.575 337.353 269.845 336.768 270.18 336.269C270.515 335.77 270.929 335.384 271.421 335.11C271.913 334.837 272.494 334.7 273.164 334.7C273.896 334.7 274.531 334.84 275.071 335.121C275.618 335.394 276.069 335.784 276.425 336.29C276.787 336.789 277.054 337.383 277.225 338.074C277.402 338.757 277.491 339.513 277.491 340.34ZM274.538 340.555V340.34C274.538 339.889 274.504 339.465 274.436 339.068C274.374 338.665 274.265 338.313 274.107 338.012C273.95 337.705 273.735 337.462 273.462 337.284C273.195 337.106 272.85 337.018 272.426 337.018C272.023 337.018 271.681 337.086 271.4 337.223C271.12 337.359 270.888 337.551 270.703 337.797C270.525 338.043 270.392 338.337 270.303 338.679C270.214 339.014 270.16 339.383 270.139 339.786V341.129C270.16 341.669 270.249 342.148 270.406 342.565C270.57 342.975 270.816 343.3 271.144 343.539C271.479 343.771 271.913 343.888 272.446 343.888C272.863 343.888 273.209 343.806 273.482 343.642C273.755 343.478 273.967 343.245 274.118 342.944C274.275 342.644 274.384 342.292 274.446 341.888C274.507 341.478 274.538 341.034 274.538 340.555ZM285.315 343.498V338.556C285.315 338.2 285.257 337.896 285.141 337.643C285.024 337.383 284.843 337.182 284.597 337.038C284.358 336.895 284.047 336.823 283.664 336.823C283.336 336.823 283.052 336.881 282.813 336.997C282.574 337.106 282.389 337.267 282.259 337.479C282.129 337.684 282.065 337.927 282.065 338.207H279.111C279.111 337.735 279.221 337.288 279.44 336.864C279.658 336.44 279.976 336.067 280.393 335.746C280.81 335.418 281.306 335.162 281.88 334.977C282.461 334.792 283.11 334.7 283.828 334.7C284.69 334.7 285.455 334.844 286.125 335.131C286.795 335.418 287.321 335.849 287.704 336.423C288.094 336.997 288.289 337.715 288.289 338.576V343.324C288.289 343.932 288.326 344.431 288.401 344.821C288.477 345.204 288.586 345.539 288.73 345.826V346H285.746C285.602 345.699 285.493 345.323 285.418 344.872C285.349 344.414 285.315 343.956 285.315 343.498ZM285.705 339.243L285.725 340.914H284.074C283.685 340.914 283.346 340.958 283.059 341.047C282.772 341.136 282.536 341.263 282.352 341.427C282.167 341.584 282.03 341.769 281.941 341.98C281.859 342.192 281.818 342.425 281.818 342.678C281.818 342.931 281.877 343.16 281.993 343.365C282.109 343.563 282.276 343.72 282.495 343.836C282.714 343.946 282.97 344 283.264 344C283.709 344 284.095 343.912 284.423 343.734C284.751 343.556 285.004 343.337 285.182 343.078C285.366 342.818 285.462 342.572 285.469 342.339L286.248 343.59C286.139 343.871 285.988 344.161 285.797 344.462C285.612 344.763 285.377 345.046 285.089 345.313C284.802 345.573 284.457 345.788 284.054 345.959C283.65 346.123 283.172 346.205 282.618 346.205C281.914 346.205 281.275 346.065 280.701 345.785C280.133 345.498 279.682 345.104 279.347 344.605C279.019 344.1 278.855 343.525 278.855 342.883C278.855 342.302 278.964 341.786 279.183 341.334C279.402 340.883 279.723 340.504 280.147 340.196C280.578 339.882 281.114 339.646 281.757 339.489C282.399 339.325 283.145 339.243 283.992 339.243H285.705ZM296.564 342.934C296.564 342.722 296.502 342.531 296.379 342.36C296.256 342.189 296.027 342.032 295.692 341.888C295.364 341.738 294.889 341.601 294.267 341.478C293.706 341.355 293.183 341.201 292.698 341.017C292.219 340.825 291.802 340.596 291.447 340.33C291.098 340.063 290.825 339.749 290.627 339.386C290.428 339.017 290.329 338.597 290.329 338.125C290.329 337.66 290.428 337.223 290.627 336.812C290.832 336.402 291.122 336.04 291.498 335.726C291.881 335.404 292.346 335.155 292.893 334.977C293.446 334.792 294.068 334.7 294.759 334.7C295.723 334.7 296.55 334.854 297.24 335.162C297.938 335.469 298.471 335.893 298.84 336.433C299.216 336.966 299.404 337.575 299.404 338.258H296.451C296.451 337.971 296.389 337.715 296.266 337.489C296.15 337.257 295.965 337.076 295.712 336.946C295.466 336.809 295.145 336.741 294.749 336.741C294.42 336.741 294.137 336.799 293.898 336.915C293.658 337.024 293.474 337.175 293.344 337.366C293.221 337.551 293.159 337.756 293.159 337.981C293.159 338.152 293.193 338.306 293.262 338.443C293.337 338.573 293.457 338.692 293.621 338.802C293.785 338.911 293.997 339.014 294.256 339.109C294.523 339.198 294.851 339.28 295.241 339.355C296.041 339.52 296.755 339.735 297.384 340.001C298.013 340.261 298.512 340.617 298.881 341.068C299.25 341.512 299.435 342.097 299.435 342.821C299.435 343.313 299.325 343.765 299.107 344.175C298.888 344.585 298.573 344.944 298.163 345.251C297.753 345.552 297.261 345.788 296.687 345.959C296.119 346.123 295.48 346.205 294.769 346.205C293.737 346.205 292.862 346.021 292.144 345.651C291.433 345.282 290.893 344.814 290.524 344.247C290.162 343.672 289.981 343.084 289.981 342.483H292.78C292.794 342.886 292.896 343.211 293.087 343.457C293.286 343.703 293.535 343.881 293.836 343.99C294.144 344.1 294.475 344.154 294.831 344.154C295.213 344.154 295.531 344.103 295.784 344C296.037 343.891 296.229 343.748 296.358 343.57C296.495 343.385 296.564 343.173 296.564 342.934ZM306.459 346.205C305.597 346.205 304.825 346.068 304.141 345.795C303.458 345.515 302.877 345.128 302.398 344.636C301.926 344.144 301.564 343.573 301.311 342.924C301.058 342.268 300.932 341.57 300.932 340.832V340.422C300.932 339.581 301.051 338.812 301.291 338.115C301.53 337.417 301.872 336.812 302.316 336.3C302.767 335.787 303.314 335.394 303.957 335.121C304.599 334.84 305.324 334.7 306.13 334.7C306.917 334.7 307.614 334.83 308.222 335.09C308.831 335.35 309.34 335.719 309.75 336.197C310.167 336.676 310.482 337.25 310.693 337.92C310.905 338.583 311.011 339.321 311.011 340.135V341.365H302.193V339.396H308.109V339.171C308.109 338.761 308.034 338.395 307.884 338.074C307.74 337.746 307.522 337.486 307.228 337.294C306.934 337.103 306.558 337.007 306.1 337.007C305.71 337.007 305.375 337.093 305.095 337.264C304.815 337.435 304.586 337.674 304.408 337.981C304.237 338.289 304.107 338.651 304.018 339.068C303.936 339.479 303.895 339.93 303.895 340.422V340.832C303.895 341.276 303.957 341.687 304.08 342.062C304.21 342.438 304.391 342.763 304.623 343.037C304.862 343.31 305.149 343.522 305.484 343.672C305.826 343.823 306.212 343.898 306.643 343.898C307.176 343.898 307.672 343.795 308.13 343.59C308.595 343.378 308.995 343.061 309.33 342.637L310.765 344.195C310.533 344.53 310.215 344.852 309.812 345.159C309.415 345.467 308.937 345.72 308.376 345.918C307.816 346.109 307.176 346.205 306.459 346.205ZM319.245 343.58V330.25H322.219V346H319.543L319.245 343.58ZM312.232 340.586V340.371C312.232 339.523 312.327 338.754 312.519 338.063C312.71 337.366 312.99 336.768 313.359 336.269C313.729 335.77 314.183 335.384 314.723 335.11C315.263 334.837 315.878 334.7 316.569 334.7C317.218 334.7 317.786 334.837 318.271 335.11C318.763 335.384 319.18 335.773 319.522 336.279C319.871 336.778 320.151 337.37 320.363 338.053C320.575 338.73 320.729 339.472 320.824 340.278V340.75C320.729 341.522 320.575 342.24 320.363 342.903C320.151 343.566 319.871 344.147 319.522 344.646C319.18 345.139 318.763 345.521 318.271 345.795C317.779 346.068 317.205 346.205 316.548 346.205C315.858 346.205 315.243 346.065 314.703 345.785C314.17 345.504 313.718 345.111 313.349 344.605C312.987 344.1 312.71 343.505 312.519 342.821C312.327 342.138 312.232 341.393 312.232 340.586ZM315.185 340.371V340.586C315.185 341.044 315.219 341.471 315.287 341.868C315.362 342.264 315.482 342.616 315.646 342.924C315.817 343.225 316.036 343.46 316.302 343.631C316.576 343.795 316.907 343.877 317.297 343.877C317.803 343.877 318.22 343.765 318.548 343.539C318.876 343.307 319.126 342.989 319.296 342.585C319.474 342.182 319.577 341.717 319.604 341.191V339.848C319.584 339.417 319.522 339.031 319.42 338.689C319.324 338.34 319.18 338.043 318.989 337.797C318.804 337.551 318.572 337.359 318.292 337.223C318.018 337.086 317.693 337.018 317.317 337.018C316.935 337.018 316.607 337.106 316.333 337.284C316.06 337.455 315.837 337.691 315.667 337.992C315.503 338.292 315.379 338.648 315.297 339.058C315.222 339.461 315.185 339.899 315.185 340.371ZM333.519 346H330.545V333.921C330.545 333.08 330.709 332.373 331.037 331.798C331.372 331.217 331.84 330.78 332.442 330.486C333.05 330.185 333.772 330.035 334.606 330.035C334.879 330.035 335.142 330.055 335.395 330.096C335.648 330.13 335.894 330.175 336.133 330.229L336.103 332.455C335.973 332.42 335.836 332.396 335.692 332.383C335.549 332.369 335.381 332.362 335.19 332.362C334.835 332.362 334.53 332.424 334.277 332.547C334.031 332.663 333.843 332.837 333.713 333.07C333.584 333.302 333.519 333.586 333.519 333.921V346ZM335.733 334.905V336.997H328.894V334.905H335.733ZM340.235 337.325V346H337.282V334.905H340.061L340.235 337.325ZM343.578 334.833L343.526 337.571C343.383 337.551 343.209 337.534 343.003 337.52C342.805 337.5 342.624 337.489 342.46 337.489C342.043 337.489 341.681 337.544 341.373 337.653C341.072 337.756 340.819 337.91 340.614 338.115C340.416 338.32 340.266 338.569 340.163 338.863C340.067 339.157 340.013 339.492 339.999 339.868L339.404 339.684C339.404 338.966 339.476 338.306 339.62 337.705C339.763 337.096 339.972 336.566 340.245 336.115C340.525 335.664 340.867 335.315 341.271 335.069C341.674 334.823 342.135 334.7 342.655 334.7C342.819 334.7 342.986 334.714 343.157 334.741C343.328 334.762 343.468 334.792 343.578 334.833ZM344.193 340.565V340.35C344.193 339.537 344.309 338.788 344.542 338.104C344.774 337.414 345.112 336.816 345.557 336.31C346.001 335.804 346.548 335.411 347.197 335.131C347.847 334.844 348.592 334.7 349.433 334.7C350.274 334.7 351.022 334.844 351.678 335.131C352.335 335.411 352.885 335.804 353.329 336.31C353.78 336.816 354.122 337.414 354.355 338.104C354.587 338.788 354.703 339.537 354.703 340.35V340.565C354.703 341.372 354.587 342.121 354.355 342.811C354.122 343.495 353.78 344.093 353.329 344.605C352.885 345.111 352.338 345.504 351.689 345.785C351.039 346.065 350.294 346.205 349.453 346.205C348.612 346.205 347.864 346.065 347.208 345.785C346.558 345.504 346.008 345.111 345.557 344.605C345.112 344.093 344.774 343.495 344.542 342.811C344.309 342.121 344.193 341.372 344.193 340.565ZM347.146 340.35V340.565C347.146 341.03 347.187 341.464 347.269 341.868C347.351 342.271 347.481 342.626 347.659 342.934C347.843 343.235 348.083 343.471 348.377 343.642C348.67 343.812 349.029 343.898 349.453 343.898C349.863 343.898 350.215 343.812 350.509 343.642C350.803 343.471 351.039 343.235 351.217 342.934C351.395 342.626 351.524 342.271 351.607 341.868C351.695 341.464 351.74 341.03 351.74 340.565V340.35C351.74 339.899 351.695 339.475 351.607 339.079C351.524 338.675 351.391 338.32 351.207 338.012C351.029 337.698 350.793 337.452 350.499 337.274C350.205 337.096 349.85 337.007 349.433 337.007C349.016 337.007 348.66 337.096 348.366 337.274C348.079 337.452 347.843 337.698 347.659 338.012C347.481 338.32 347.351 338.675 347.269 339.079C347.187 339.475 347.146 339.899 347.146 340.35ZM359.41 337.274V346H356.457V334.905H359.225L359.41 337.274ZM358.979 340.063H358.179C358.179 339.243 358.285 338.504 358.497 337.848C358.709 337.185 359.006 336.621 359.389 336.156C359.772 335.685 360.227 335.326 360.753 335.08C361.286 334.827 361.881 334.7 362.537 334.7C363.057 334.7 363.532 334.775 363.962 334.926C364.393 335.076 364.762 335.315 365.07 335.644C365.384 335.972 365.624 336.406 365.788 336.946C365.959 337.486 366.044 338.146 366.044 338.925V346H363.07V338.915C363.07 338.422 363.002 338.04 362.865 337.766C362.729 337.493 362.527 337.301 362.26 337.192C362.001 337.076 361.679 337.018 361.296 337.018C360.9 337.018 360.555 337.096 360.261 337.253C359.974 337.411 359.734 337.629 359.543 337.91C359.358 338.183 359.218 338.504 359.123 338.874C359.027 339.243 358.979 339.639 358.979 340.063ZM373.724 334.905V336.997H367.264V334.905H373.724ZM368.864 332.167H371.817V342.657C371.817 342.979 371.858 343.225 371.94 343.396C372.029 343.566 372.159 343.686 372.33 343.754C372.501 343.816 372.716 343.847 372.976 343.847C373.16 343.847 373.324 343.84 373.468 343.826C373.618 343.806 373.745 343.785 373.847 343.765L373.857 345.938C373.605 346.021 373.331 346.085 373.037 346.133C372.743 346.181 372.419 346.205 372.063 346.205C371.414 346.205 370.846 346.099 370.361 345.887C369.882 345.668 369.513 345.32 369.253 344.841C368.994 344.363 368.864 343.734 368.864 342.955V332.167ZM380.512 346.205C379.651 346.205 378.878 346.068 378.195 345.795C377.511 345.515 376.93 345.128 376.452 344.636C375.98 344.144 375.618 343.573 375.365 342.924C375.112 342.268 374.985 341.57 374.985 340.832V340.422C374.985 339.581 375.105 338.812 375.344 338.115C375.584 337.417 375.925 336.812 376.37 336.3C376.821 335.787 377.368 335.394 378.01 335.121C378.653 334.84 379.378 334.7 380.184 334.7C380.97 334.7 381.668 334.83 382.276 335.09C382.884 335.35 383.394 335.719 383.804 336.197C384.221 336.676 384.535 337.25 384.747 337.92C384.959 338.583 385.065 339.321 385.065 340.135V341.365H376.247V339.396H382.163V339.171C382.163 338.761 382.088 338.395 381.938 338.074C381.794 337.746 381.575 337.486 381.281 337.294C380.987 337.103 380.611 337.007 380.153 337.007C379.764 337.007 379.429 337.093 379.149 337.264C378.868 337.435 378.639 337.674 378.462 337.981C378.291 338.289 378.161 338.651 378.072 339.068C377.99 339.479 377.949 339.93 377.949 340.422V340.832C377.949 341.276 378.01 341.687 378.133 342.062C378.263 342.438 378.444 342.763 378.677 343.037C378.916 343.31 379.203 343.522 379.538 343.672C379.88 343.823 380.266 343.898 380.697 343.898C381.23 343.898 381.726 343.795 382.184 343.59C382.649 343.378 383.048 343.061 383.383 342.637L384.819 344.195C384.587 344.53 384.269 344.852 383.865 345.159C383.469 345.467 382.99 345.72 382.43 345.918C381.869 346.109 381.23 346.205 380.512 346.205ZM389.638 337.274V346H386.685V334.905H389.454L389.638 337.274ZM389.208 340.063H388.408C388.408 339.243 388.514 338.504 388.726 337.848C388.938 337.185 389.235 336.621 389.618 336.156C390.001 335.685 390.455 335.326 390.982 335.08C391.515 334.827 392.109 334.7 392.766 334.7C393.285 334.7 393.76 334.775 394.191 334.926C394.622 335.076 394.991 335.315 395.298 335.644C395.613 335.972 395.852 336.406 396.016 336.946C396.187 337.486 396.273 338.146 396.273 338.925V346H393.299V338.915C393.299 338.422 393.231 338.04 393.094 337.766C392.957 337.493 392.755 337.301 392.489 337.192C392.229 337.076 391.908 337.018 391.525 337.018C391.128 337.018 390.783 337.096 390.489 337.253C390.202 337.411 389.963 337.629 389.772 337.91C389.587 338.183 389.447 338.504 389.351 338.874C389.255 339.243 389.208 339.639 389.208 340.063ZM405.07 343.58V330.25H408.044V346H405.368L405.07 343.58ZM398.057 340.586V340.371C398.057 339.523 398.152 338.754 398.344 338.063C398.535 337.366 398.816 336.768 399.185 336.269C399.554 335.77 400.008 335.384 400.548 335.11C401.088 334.837 401.704 334.7 402.394 334.7C403.044 334.7 403.611 334.837 404.096 335.11C404.588 335.384 405.005 335.773 405.347 336.279C405.696 336.778 405.976 337.37 406.188 338.053C406.4 338.73 406.554 339.472 406.649 340.278V340.75C406.554 341.522 406.4 342.24 406.188 342.903C405.976 343.566 405.696 344.147 405.347 344.646C405.005 345.139 404.588 345.521 404.096 345.795C403.604 346.068 403.03 346.205 402.374 346.205C401.683 346.205 401.068 346.065 400.528 345.785C399.995 345.504 399.544 345.111 399.174 344.605C398.812 344.1 398.535 343.505 398.344 342.821C398.152 342.138 398.057 341.393 398.057 340.586ZM401.01 340.371V340.586C401.01 341.044 401.044 341.471 401.112 341.868C401.188 342.264 401.307 342.616 401.471 342.924C401.642 343.225 401.861 343.46 402.128 343.631C402.401 343.795 402.732 343.877 403.122 343.877C403.628 343.877 404.045 343.765 404.373 343.539C404.701 343.307 404.951 342.989 405.122 342.585C405.299 342.182 405.402 341.717 405.429 341.191V339.848C405.409 339.417 405.347 339.031 405.245 338.689C405.149 338.34 405.005 338.043 404.814 337.797C404.629 337.551 404.397 337.359 404.117 337.223C403.843 337.086 403.519 337.018 403.143 337.018C402.76 337.018 402.432 337.106 402.158 337.284C401.885 337.455 401.663 337.691 401.492 337.992C401.328 338.292 401.205 338.648 401.123 339.058C401.047 339.461 401.01 339.899 401.01 340.371ZM416.35 342.934C416.35 342.722 416.288 342.531 416.165 342.36C416.042 342.189 415.813 342.032 415.478 341.888C415.15 341.738 414.675 341.601 414.053 341.478C413.492 341.355 412.969 341.201 412.484 341.017C412.005 340.825 411.588 340.596 411.233 340.33C410.884 340.063 410.611 339.749 410.413 339.386C410.214 339.017 410.115 338.597 410.115 338.125C410.115 337.66 410.214 337.223 410.413 336.812C410.618 336.402 410.908 336.04 411.284 335.726C411.667 335.404 412.132 335.155 412.679 334.977C413.232 334.792 413.855 334.7 414.545 334.7C415.509 334.7 416.336 334.854 417.026 335.162C417.724 335.469 418.257 335.893 418.626 336.433C419.002 336.966 419.19 337.575 419.19 338.258H416.237C416.237 337.971 416.175 337.715 416.052 337.489C415.936 337.257 415.752 337.076 415.499 336.946C415.253 336.809 414.931 336.741 414.535 336.741C414.207 336.741 413.923 336.799 413.684 336.915C413.444 337.024 413.26 337.175 413.13 337.366C413.007 337.551 412.945 337.756 412.945 337.981C412.945 338.152 412.98 338.306 413.048 338.443C413.123 338.573 413.243 338.692 413.407 338.802C413.571 338.911 413.783 339.014 414.043 339.109C414.309 339.198 414.637 339.28 415.027 339.355C415.827 339.52 416.541 339.735 417.17 340.001C417.799 340.261 418.298 340.617 418.667 341.068C419.036 341.512 419.221 342.097 419.221 342.821C419.221 343.313 419.111 343.765 418.893 344.175C418.674 344.585 418.359 344.944 417.949 345.251C417.539 345.552 417.047 345.788 416.473 345.959C415.905 346.123 415.266 346.205 414.555 346.205C413.523 346.205 412.648 346.021 411.93 345.651C411.219 345.282 410.679 344.814 410.31 344.247C409.948 343.672 409.767 343.084 409.767 342.483H412.566C412.58 342.886 412.682 343.211 412.874 343.457C413.072 343.703 413.321 343.881 413.622 343.99C413.93 344.1 414.261 344.154 414.617 344.154C415 344.154 415.317 344.103 415.57 344C415.823 343.891 416.015 343.748 416.145 343.57C416.281 343.385 416.35 343.173 416.35 342.934Z" fill="#FAF5F3"/>
<path d="M464 214V175" stroke="#414141" stroke-width="2"/>
<path d="M535 203L535 129" stroke="#414141" stroke-width="2"/>
<path d="M396 172L396 76" stroke="#414141" stroke-width="2"/>
<path d="M418 221H465" stroke="#414141" stroke-width="2"/>
<rect x="452" y="204" width="133" height="36" rx="5" fill="#0C64E9"/>
<path d="M498.147 223.678H494.343V221.279H498.147C498.735 221.279 499.213 221.183 499.583 220.992C499.952 220.793 500.222 220.52 500.393 220.171C500.563 219.823 500.649 219.43 500.649 218.992C500.649 218.548 500.563 218.134 500.393 217.751C500.222 217.369 499.952 217.061 499.583 216.829C499.213 216.596 498.735 216.48 498.147 216.48H495.409V229H492.333V214.07H498.147C499.316 214.07 500.317 214.282 501.151 214.706C501.992 215.123 502.635 215.701 503.079 216.439C503.523 217.177 503.746 218.021 503.746 218.972C503.746 219.936 503.523 220.77 503.079 221.474C502.635 222.178 501.992 222.721 501.151 223.104C500.317 223.487 499.316 223.678 498.147 223.678ZM508.637 220.325V229H505.684V217.905H508.462L508.637 220.325ZM511.979 217.833L511.928 220.571C511.785 220.551 511.61 220.534 511.405 220.52C511.207 220.5 511.026 220.489 510.862 220.489C510.445 220.489 510.083 220.544 509.775 220.653C509.474 220.756 509.221 220.91 509.016 221.115C508.818 221.32 508.667 221.569 508.565 221.863C508.469 222.157 508.415 222.492 508.401 222.868L507.806 222.684C507.806 221.966 507.878 221.306 508.021 220.705C508.165 220.096 508.374 219.566 508.647 219.115C508.927 218.664 509.269 218.315 509.672 218.069C510.076 217.823 510.537 217.7 511.057 217.7C511.221 217.7 511.388 217.714 511.559 217.741C511.73 217.762 511.87 217.792 511.979 217.833ZM512.595 223.565V223.35C512.595 222.537 512.711 221.788 512.943 221.104C513.176 220.414 513.514 219.816 513.958 219.31C514.403 218.804 514.95 218.411 515.599 218.131C516.249 217.844 516.994 217.7 517.834 217.7C518.675 217.7 519.424 217.844 520.08 218.131C520.736 218.411 521.287 218.804 521.731 219.31C522.182 219.816 522.524 220.414 522.756 221.104C522.989 221.788 523.105 222.537 523.105 223.35V223.565C523.105 224.372 522.989 225.121 522.756 225.811C522.524 226.495 522.182 227.093 521.731 227.605C521.287 228.111 520.74 228.504 520.09 228.785C519.441 229.065 518.696 229.205 517.855 229.205C517.014 229.205 516.266 229.065 515.609 228.785C514.96 228.504 514.41 228.111 513.958 227.605C513.514 227.093 513.176 226.495 512.943 225.811C512.711 225.121 512.595 224.372 512.595 223.565ZM515.548 223.35V223.565C515.548 224.03 515.589 224.464 515.671 224.868C515.753 225.271 515.883 225.626 516.061 225.934C516.245 226.235 516.484 226.471 516.778 226.642C517.072 226.812 517.431 226.898 517.855 226.898C518.265 226.898 518.617 226.812 518.911 226.642C519.205 226.471 519.441 226.235 519.619 225.934C519.796 225.626 519.926 225.271 520.008 224.868C520.097 224.464 520.142 224.03 520.142 223.565V223.35C520.142 222.899 520.097 222.475 520.008 222.079C519.926 221.675 519.793 221.32 519.608 221.012C519.431 220.698 519.195 220.452 518.901 220.274C518.607 220.096 518.251 220.007 517.834 220.007C517.417 220.007 517.062 220.096 516.768 220.274C516.481 220.452 516.245 220.698 516.061 221.012C515.883 221.32 515.753 221.675 515.671 222.079C515.589 222.475 515.548 222.899 515.548 223.35ZM527.073 217.905L528.909 221.279L530.795 217.905H533.943L530.806 223.33L534.087 229H530.929L528.929 225.432L526.93 229H523.771L527.053 223.33L523.915 217.905H527.073ZM538.67 227.749L541.613 217.905H544.782L540.321 230.671C540.226 230.952 540.096 231.252 539.932 231.574C539.774 231.895 539.559 232.199 539.286 232.486C539.019 232.78 538.681 233.02 538.271 233.204C537.867 233.389 537.372 233.481 536.784 233.481C536.503 233.481 536.274 233.464 536.097 233.43C535.919 233.396 535.707 233.348 535.461 233.286V231.123C535.536 231.123 535.615 231.123 535.697 231.123C535.779 231.129 535.857 231.133 535.933 231.133C536.322 231.133 536.64 231.088 536.886 231C537.132 230.911 537.331 230.774 537.481 230.589C537.631 230.412 537.751 230.179 537.84 229.892L538.67 227.749ZM537.44 217.905L539.85 225.944L540.27 229.072L538.26 229.287L534.271 217.905H537.44Z" fill="#CBDEFB"/>
<path d="M425 62H492" stroke="#414141" stroke-width="2"/>
<rect x="428" y="108" width="156" height="31" rx="5" fill="#743C8E"/>
<rect x="425" y="104" width="156" height="31" rx="5" fill="#8E3EB4"/>
<rect x="421" y="100" width="156" height="31" rx="5" fill="#A738DC"/>
<rect x="183" y="201" width="83" height="58" rx="5" fill="#A738DC"/>
<path d="M455.384 107.07L458.501 113.879L461.618 107.07H464.971L460.06 116.565V122H456.942V116.565L452.021 107.07H455.384ZM465.002 116.565V116.35C465.002 115.537 465.118 114.788 465.351 114.104C465.583 113.414 465.921 112.816 466.366 112.31C466.81 111.804 467.357 111.411 468.006 111.131C468.656 110.844 469.401 110.7 470.242 110.7C471.083 110.7 471.831 110.844 472.487 111.131C473.144 111.411 473.694 111.804 474.138 112.31C474.589 112.816 474.931 113.414 475.164 114.104C475.396 114.788 475.512 115.537 475.512 116.35V116.565C475.512 117.372 475.396 118.121 475.164 118.811C474.931 119.495 474.589 120.093 474.138 120.605C473.694 121.111 473.147 121.504 472.498 121.785C471.848 122.065 471.103 122.205 470.262 122.205C469.421 122.205 468.673 122.065 468.017 121.785C467.367 121.504 466.817 121.111 466.366 120.605C465.921 120.093 465.583 119.495 465.351 118.811C465.118 118.121 465.002 117.372 465.002 116.565ZM467.955 116.35V116.565C467.955 117.03 467.996 117.464 468.078 117.868C468.16 118.271 468.29 118.626 468.468 118.934C468.652 119.235 468.892 119.471 469.186 119.642C469.479 119.812 469.838 119.898 470.262 119.898C470.672 119.898 471.024 119.812 471.318 119.642C471.612 119.471 471.848 119.235 472.026 118.934C472.204 118.626 472.333 118.271 472.416 117.868C472.504 117.464 472.549 117.03 472.549 116.565V116.35C472.549 115.899 472.504 115.475 472.416 115.079C472.333 114.675 472.2 114.32 472.016 114.012C471.838 113.698 471.602 113.452 471.308 113.274C471.014 113.096 470.659 113.007 470.242 113.007C469.825 113.007 469.469 113.096 469.175 113.274C468.888 113.452 468.652 113.698 468.468 114.012C468.29 114.32 468.16 114.675 468.078 115.079C467.996 115.475 467.955 115.899 467.955 116.35ZM483.89 119.344V110.905H486.843V122H484.064L483.89 119.344ZM484.218 117.068L485.089 117.047C485.089 117.786 485.004 118.473 484.833 119.108C484.662 119.737 484.406 120.284 484.064 120.749C483.722 121.207 483.292 121.566 482.772 121.826C482.252 122.079 481.641 122.205 480.937 122.205C480.396 122.205 479.897 122.13 479.439 121.979C478.988 121.822 478.599 121.58 478.271 121.251C477.949 120.917 477.696 120.489 477.512 119.97C477.334 119.443 477.245 118.811 477.245 118.073V110.905H480.198V118.093C480.198 118.421 480.236 118.698 480.311 118.924C480.393 119.149 480.506 119.334 480.649 119.478C480.793 119.621 480.96 119.724 481.152 119.785C481.35 119.847 481.569 119.877 481.808 119.877C482.417 119.877 482.895 119.754 483.244 119.508C483.599 119.262 483.849 118.927 483.992 118.503C484.143 118.073 484.218 117.594 484.218 117.068ZM492.052 113.325V122H489.099V110.905H491.877L492.052 113.325ZM495.395 110.833L495.343 113.571C495.2 113.551 495.025 113.534 494.82 113.52C494.622 113.5 494.441 113.489 494.277 113.489C493.86 113.489 493.498 113.544 493.19 113.653C492.889 113.756 492.636 113.91 492.431 114.115C492.233 114.32 492.083 114.569 491.98 114.863C491.884 115.157 491.83 115.492 491.816 115.868L491.221 115.684C491.221 114.966 491.293 114.306 491.437 113.705C491.58 113.096 491.789 112.566 492.062 112.115C492.342 111.664 492.684 111.315 493.087 111.069C493.491 110.823 493.952 110.7 494.472 110.7C494.636 110.7 494.803 110.714 494.974 110.741C495.145 110.762 495.285 110.792 495.395 110.833ZM508.273 109.624L504.213 122H500.942L506.489 107.07H508.571L508.273 109.624ZM511.647 122L507.576 109.624L507.248 107.07H509.35L514.928 122H511.647ZM511.462 116.442V118.852H503.577V116.442H511.462ZM518.753 113.038V126.266H515.8V110.905H518.538L518.753 113.038ZM525.777 116.33V116.545C525.777 117.352 525.681 118.1 525.49 118.791C525.305 119.481 525.032 120.083 524.669 120.595C524.307 121.101 523.856 121.498 523.316 121.785C522.783 122.065 522.167 122.205 521.47 122.205C520.793 122.205 520.206 122.068 519.707 121.795C519.208 121.521 518.787 121.139 518.445 120.646C518.11 120.147 517.84 119.57 517.635 118.914C517.43 118.257 517.273 117.553 517.164 116.801V116.237C517.273 115.431 517.43 114.692 517.635 114.022C517.84 113.346 518.11 112.761 518.445 112.269C518.787 111.77 519.204 111.384 519.696 111.11C520.195 110.837 520.78 110.7 521.45 110.7C522.154 110.7 522.772 110.833 523.306 111.1C523.846 111.367 524.297 111.75 524.659 112.249C525.028 112.748 525.305 113.342 525.49 114.033C525.681 114.723 525.777 115.489 525.777 116.33ZM522.813 116.545V116.33C522.813 115.858 522.772 115.424 522.69 115.027C522.615 114.624 522.492 114.272 522.321 113.971C522.157 113.67 521.938 113.438 521.665 113.274C521.398 113.103 521.074 113.018 520.691 113.018C520.288 113.018 519.942 113.083 519.655 113.212C519.375 113.342 519.146 113.53 518.968 113.776C518.791 114.022 518.657 114.316 518.568 114.658C518.479 115 518.425 115.386 518.404 115.817V117.242C518.438 117.748 518.534 118.203 518.691 118.606C518.849 119.002 519.091 119.317 519.419 119.549C519.748 119.782 520.178 119.898 520.711 119.898C521.101 119.898 521.429 119.812 521.696 119.642C521.962 119.464 522.178 119.221 522.342 118.914C522.513 118.606 522.632 118.25 522.701 117.847C522.776 117.444 522.813 117.01 522.813 116.545ZM530.565 113.038V126.266H527.612V110.905H530.35L530.565 113.038ZM537.589 116.33V116.545C537.589 117.352 537.494 118.1 537.302 118.791C537.118 119.481 536.844 120.083 536.482 120.595C536.12 121.101 535.668 121.498 535.128 121.785C534.595 122.065 533.98 122.205 533.283 122.205C532.606 122.205 532.018 122.068 531.519 121.795C531.02 121.521 530.6 121.139 530.258 120.646C529.923 120.147 529.653 119.57 529.448 118.914C529.243 118.257 529.085 117.553 528.976 116.801V116.237C529.085 115.431 529.243 114.692 529.448 114.022C529.653 113.346 529.923 112.761 530.258 112.269C530.6 111.77 531.017 111.384 531.509 111.11C532.008 110.837 532.592 110.7 533.262 110.7C533.966 110.7 534.585 110.833 535.118 111.1C535.658 111.367 536.109 111.75 536.472 112.249C536.841 112.748 537.118 113.342 537.302 114.033C537.494 114.723 537.589 115.489 537.589 116.33ZM534.626 116.545V116.33C534.626 115.858 534.585 115.424 534.503 115.027C534.428 114.624 534.305 114.272 534.134 113.971C533.97 113.67 533.751 113.438 533.478 113.274C533.211 113.103 532.886 113.018 532.503 113.018C532.1 113.018 531.755 113.083 531.468 113.212C531.188 113.342 530.958 113.53 530.781 113.776C530.603 114.022 530.47 114.316 530.381 114.658C530.292 115 530.237 115.386 530.217 115.817V117.242C530.251 117.748 530.347 118.203 530.504 118.606C530.661 119.002 530.904 119.317 531.232 119.549C531.56 119.782 531.991 119.898 532.524 119.898C532.914 119.898 533.242 119.812 533.508 119.642C533.775 119.464 533.99 119.221 534.154 118.914C534.325 118.606 534.445 118.25 534.513 117.847C534.588 117.444 534.626 117.01 534.626 116.545Z" fill="#E4D6EB"/>
<path d="M205.563 209.07L208.681 215.879L211.798 209.07H215.151L210.239 218.565V224H207.122V218.565L202.2 209.07H205.563ZM215.182 218.565V218.35C215.182 217.537 215.298 216.788 215.53 216.104C215.763 215.414 216.101 214.816 216.545 214.31C216.99 213.804 217.537 213.411 218.186 213.131C218.835 212.844 219.581 212.7 220.421 212.7C221.262 212.7 222.011 212.844 222.667 213.131C223.323 213.411 223.874 213.804 224.318 214.31C224.769 214.816 225.111 215.414 225.343 216.104C225.576 216.788 225.692 217.537 225.692 218.35V218.565C225.692 219.372 225.576 220.121 225.343 220.811C225.111 221.495 224.769 222.093 224.318 222.605C223.874 223.111 223.327 223.504 222.677 223.785C222.028 224.065 221.283 224.205 220.442 224.205C219.601 224.205 218.853 224.065 218.196 223.785C217.547 223.504 216.997 223.111 216.545 222.605C216.101 222.093 215.763 221.495 215.53 220.811C215.298 220.121 215.182 219.372 215.182 218.565ZM218.135 218.35V218.565C218.135 219.03 218.176 219.464 218.258 219.868C218.34 220.271 218.47 220.626 218.647 220.934C218.832 221.235 219.071 221.471 219.365 221.642C219.659 221.812 220.018 221.898 220.442 221.898C220.852 221.898 221.204 221.812 221.498 221.642C221.792 221.471 222.028 221.235 222.206 220.934C222.383 220.626 222.513 220.271 222.595 219.868C222.684 219.464 222.729 219.03 222.729 218.565V218.35C222.729 217.899 222.684 217.475 222.595 217.079C222.513 216.675 222.38 216.32 222.195 216.012C222.018 215.698 221.782 215.452 221.488 215.274C221.194 215.096 220.838 215.007 220.421 215.007C220.004 215.007 219.649 215.096 219.355 215.274C219.068 215.452 218.832 215.698 218.647 216.012C218.47 216.32 218.34 216.675 218.258 217.079C218.176 217.475 218.135 217.899 218.135 218.35ZM234.069 221.344V212.905H237.022V224H234.244L234.069 221.344ZM234.397 219.068L235.269 219.047C235.269 219.786 235.184 220.473 235.013 221.108C234.842 221.737 234.585 222.284 234.244 222.749C233.902 223.207 233.471 223.566 232.952 223.826C232.432 224.079 231.82 224.205 231.116 224.205C230.576 224.205 230.077 224.13 229.619 223.979C229.168 223.822 228.778 223.58 228.45 223.251C228.129 222.917 227.876 222.489 227.691 221.97C227.514 221.443 227.425 220.811 227.425 220.073V212.905H230.378V220.093C230.378 220.421 230.416 220.698 230.491 220.924C230.573 221.149 230.686 221.334 230.829 221.478C230.973 221.621 231.14 221.724 231.332 221.785C231.53 221.847 231.749 221.877 231.988 221.877C232.596 221.877 233.075 221.754 233.423 221.508C233.779 221.262 234.028 220.927 234.172 220.503C234.322 220.073 234.397 219.594 234.397 219.068ZM242.231 215.325V224H239.278V212.905H242.057L242.231 215.325ZM245.574 212.833L245.523 215.571C245.379 215.551 245.205 215.534 245 215.52C244.802 215.5 244.621 215.489 244.457 215.489C244.04 215.489 243.677 215.544 243.37 215.653C243.069 215.756 242.816 215.91 242.611 216.115C242.413 216.32 242.262 216.569 242.16 216.863C242.064 217.157 242.009 217.492 241.996 217.868L241.401 217.684C241.401 216.966 241.473 216.306 241.616 215.705C241.76 215.096 241.968 214.566 242.242 214.115C242.522 213.664 242.864 213.315 243.267 213.069C243.67 212.823 244.132 212.7 244.651 212.7C244.815 212.7 244.983 212.714 245.154 212.741C245.325 212.762 245.465 212.792 245.574 212.833ZM214.505 236.624L210.444 249H207.173L212.721 234.07H214.802L214.505 236.624ZM217.878 249L213.808 236.624L213.479 234.07H215.582L221.16 249H217.878ZM217.694 243.442V245.852H209.809V243.442H217.694ZM228.358 243.678H224.554V241.279H228.358C228.946 241.279 229.424 241.183 229.793 240.992C230.163 240.793 230.433 240.52 230.604 240.171C230.774 239.823 230.86 239.43 230.86 238.992C230.86 238.548 230.774 238.134 230.604 237.751C230.433 237.369 230.163 237.061 229.793 236.829C229.424 236.596 228.946 236.48 228.358 236.48H225.62V249H222.544V234.07H228.358C229.527 234.07 230.528 234.282 231.362 234.706C232.203 235.123 232.846 235.701 233.29 236.439C233.734 237.177 233.957 238.021 233.957 238.972C233.957 239.936 233.734 240.77 233.29 241.474C232.846 242.178 232.203 242.721 231.362 243.104C230.528 243.487 229.527 243.678 228.358 243.678ZM239.35 234.07V249H236.284V234.07H239.35Z" fill="#E4D6EB"/>
<path d="M157 73L183 136" stroke="#414141" stroke-width="2"/>
<path d="M266 149L298 216" stroke="#414141" stroke-width="2"/>
<path d="M266 137L295 71" stroke="#414141" stroke-width="2"/>
<rect x="178" y="126" width="92" height="32" rx="5" fill="#00A6CA"/>
<path d="M210.484 134.07V149H207.408L201.409 138.992V149H198.333V134.07H201.409L207.418 144.088V134.07H210.484ZM219.415 136.624L215.354 149H212.083L217.631 134.07H219.712L219.415 136.624ZM222.789 149L218.718 136.624L218.39 134.07H220.492L226.07 149H222.789ZM222.604 143.442V145.852H214.719V143.442H222.604ZM232.858 134.07V149H229.792V134.07H232.858ZM237.452 134.07V136.48H225.27V134.07H237.452ZM246.813 145.093C246.813 144.827 246.772 144.587 246.69 144.375C246.615 144.157 246.472 143.958 246.26 143.781C246.048 143.596 245.75 143.415 245.368 143.237C244.985 143.06 244.489 142.875 243.881 142.684C243.204 142.465 242.562 142.219 241.953 141.945C241.352 141.672 240.818 141.354 240.354 140.992C239.896 140.623 239.533 140.195 239.267 139.71C239.007 139.225 238.877 138.661 238.877 138.018C238.877 137.396 239.014 136.832 239.287 136.326C239.561 135.813 239.943 135.376 240.436 135.014C240.928 134.645 241.509 134.361 242.179 134.163C242.855 133.964 243.597 133.865 244.404 133.865C245.504 133.865 246.465 134.063 247.285 134.46C248.105 134.856 248.741 135.4 249.192 136.09C249.65 136.781 249.879 137.57 249.879 138.459H246.824C246.824 138.021 246.731 137.639 246.547 137.311C246.369 136.976 246.096 136.712 245.727 136.521C245.364 136.33 244.906 136.234 244.353 136.234C243.819 136.234 243.375 136.316 243.02 136.48C242.664 136.637 242.397 136.853 242.22 137.126C242.042 137.393 241.953 137.693 241.953 138.028C241.953 138.281 242.015 138.51 242.138 138.715C242.268 138.92 242.459 139.112 242.712 139.29C242.965 139.467 243.276 139.635 243.645 139.792C244.014 139.949 244.441 140.103 244.927 140.253C245.74 140.5 246.455 140.776 247.07 141.084C247.692 141.392 248.211 141.737 248.628 142.12C249.045 142.502 249.36 142.937 249.572 143.422C249.784 143.907 249.89 144.458 249.89 145.073C249.89 145.722 249.763 146.303 249.51 146.816C249.257 147.329 248.892 147.763 248.413 148.118C247.935 148.474 247.364 148.744 246.701 148.928C246.038 149.113 245.296 149.205 244.476 149.205C243.737 149.205 243.009 149.109 242.292 148.918C241.574 148.72 240.921 148.422 240.333 148.026C239.752 147.629 239.287 147.124 238.938 146.508C238.59 145.893 238.416 145.165 238.416 144.324H241.502C241.502 144.789 241.574 145.182 241.717 145.503C241.861 145.825 242.062 146.084 242.322 146.283C242.589 146.481 242.903 146.625 243.266 146.713C243.635 146.802 244.038 146.847 244.476 146.847C245.009 146.847 245.446 146.771 245.788 146.621C246.137 146.471 246.393 146.262 246.557 145.996C246.728 145.729 246.813 145.428 246.813 145.093Z" fill="#ECFAFF"/>
<rect x="380" y="159" width="92" height="32" rx="5" fill="#00A6CA"/>
<path d="M403.105 179.093C403.105 178.827 403.064 178.587 402.982 178.375C402.907 178.157 402.764 177.958 402.552 177.781C402.34 177.596 402.042 177.415 401.66 177.237C401.277 177.06 400.781 176.875 400.173 176.684C399.496 176.465 398.854 176.219 398.245 175.945C397.644 175.672 397.11 175.354 396.646 174.992C396.188 174.623 395.825 174.195 395.559 173.71C395.299 173.225 395.169 172.661 395.169 172.018C395.169 171.396 395.306 170.832 395.579 170.326C395.853 169.813 396.235 169.376 396.728 169.014C397.22 168.645 397.801 168.361 398.471 168.163C399.147 167.964 399.889 167.865 400.696 167.865C401.796 167.865 402.757 168.063 403.577 168.46C404.397 168.856 405.033 169.4 405.484 170.09C405.942 170.781 406.171 171.57 406.171 172.459H403.116C403.116 172.021 403.023 171.639 402.839 171.311C402.661 170.976 402.388 170.712 402.019 170.521C401.656 170.33 401.198 170.234 400.645 170.234C400.111 170.234 399.667 170.316 399.312 170.48C398.956 170.637 398.689 170.853 398.512 171.126C398.334 171.393 398.245 171.693 398.245 172.028C398.245 172.281 398.307 172.51 398.43 172.715C398.56 172.92 398.751 173.112 399.004 173.29C399.257 173.467 399.568 173.635 399.937 173.792C400.306 173.949 400.733 174.103 401.219 174.253C402.032 174.5 402.747 174.776 403.362 175.084C403.984 175.392 404.503 175.737 404.92 176.12C405.337 176.502 405.652 176.937 405.864 177.422C406.076 177.907 406.182 178.458 406.182 179.073C406.182 179.722 406.055 180.303 405.802 180.816C405.549 181.329 405.184 181.763 404.705 182.118C404.227 182.474 403.656 182.744 402.993 182.928C402.33 183.113 401.588 183.205 400.768 183.205C400.029 183.205 399.301 183.109 398.583 182.918C397.866 182.72 397.213 182.422 396.625 182.026C396.044 181.629 395.579 181.124 395.23 180.508C394.882 179.893 394.708 179.165 394.708 178.324H397.794C397.794 178.789 397.866 179.182 398.009 179.503C398.153 179.825 398.354 180.084 398.614 180.283C398.881 180.481 399.195 180.625 399.558 180.713C399.927 180.802 400.33 180.847 400.768 180.847C401.301 180.847 401.738 180.771 402.08 180.621C402.429 180.471 402.685 180.262 402.849 179.996C403.02 179.729 403.105 179.428 403.105 179.093ZM416.384 180.785L420.424 183.984L418.486 185.666L414.508 182.467L416.384 180.785ZM420.527 175.187V175.894C420.527 177.029 420.373 178.047 420.065 178.95C419.765 179.852 419.331 180.621 418.763 181.257C418.196 181.886 417.526 182.368 416.753 182.703C415.981 183.038 415.123 183.205 414.18 183.205C413.243 183.205 412.385 183.038 411.606 182.703C410.827 182.368 410.153 181.886 409.586 181.257C409.019 180.621 408.578 179.852 408.263 178.95C407.956 178.047 407.802 177.029 407.802 175.894V175.187C407.802 174.045 407.956 173.026 408.263 172.131C408.578 171.229 409.015 170.459 409.576 169.824C410.136 169.188 410.806 168.703 411.585 168.368C412.365 168.033 413.223 167.865 414.159 167.865C415.103 167.865 415.96 168.033 416.733 168.368C417.512 168.703 418.186 169.188 418.753 169.824C419.32 170.459 419.758 171.229 420.065 172.131C420.373 173.026 420.527 174.045 420.527 175.187ZM417.42 175.894V175.166C417.42 174.373 417.345 173.676 417.194 173.074C417.051 172.473 416.839 171.967 416.559 171.557C416.285 171.146 415.947 170.839 415.543 170.634C415.14 170.422 414.679 170.316 414.159 170.316C413.64 170.316 413.178 170.422 412.775 170.634C412.372 170.839 412.033 171.146 411.76 171.557C411.486 171.967 411.278 172.473 411.134 173.074C410.991 173.676 410.919 174.373 410.919 175.166V175.894C410.919 176.68 410.991 177.377 411.134 177.986C411.278 178.587 411.486 179.097 411.76 179.514C412.04 179.924 412.382 180.235 412.785 180.447C413.195 180.659 413.66 180.765 414.18 180.765C414.699 180.765 415.157 180.659 415.554 180.447C415.957 180.235 416.295 179.924 416.569 179.514C416.849 179.097 417.061 178.587 417.205 177.986C417.348 177.377 417.42 176.68 417.42 175.894ZM432.35 180.601V183H424.833V180.601H432.35ZM425.828 168.07V183H422.752V168.07H425.828ZM437.046 171.905V183H434.083V171.905H437.046ZM433.898 169.014C433.898 168.583 434.048 168.228 434.349 167.947C434.65 167.667 435.053 167.527 435.559 167.527C436.058 167.527 436.458 167.667 436.759 167.947C437.066 168.228 437.22 168.583 437.22 169.014C437.22 169.444 437.066 169.8 436.759 170.08C436.458 170.36 436.058 170.5 435.559 170.5C435.053 170.5 434.65 170.36 434.349 170.08C434.048 169.8 433.898 169.444 433.898 169.014ZM444.921 171.905V173.997H438.461V171.905H444.921ZM440.061 169.167H443.014V179.657C443.014 179.979 443.055 180.225 443.137 180.396C443.226 180.566 443.355 180.686 443.526 180.754C443.697 180.816 443.913 180.847 444.172 180.847C444.357 180.847 444.521 180.84 444.665 180.826C444.815 180.806 444.941 180.785 445.044 180.765L445.054 182.938C444.801 183.021 444.528 183.085 444.234 183.133C443.94 183.181 443.615 183.205 443.26 183.205C442.61 183.205 442.043 183.099 441.558 182.887C441.079 182.668 440.71 182.32 440.45 181.841C440.19 181.363 440.061 180.734 440.061 179.955V169.167ZM451.709 183.205C450.848 183.205 450.075 183.068 449.392 182.795C448.708 182.515 448.127 182.128 447.648 181.636C447.177 181.144 446.814 180.573 446.562 179.924C446.309 179.268 446.182 178.57 446.182 177.832V177.422C446.182 176.581 446.302 175.812 446.541 175.115C446.78 174.417 447.122 173.812 447.566 173.3C448.018 172.787 448.564 172.394 449.207 172.121C449.85 171.84 450.574 171.7 451.381 171.7C452.167 171.7 452.864 171.83 453.473 172.09C454.081 172.35 454.59 172.719 455 173.197C455.417 173.676 455.732 174.25 455.944 174.92C456.156 175.583 456.262 176.321 456.262 177.135V178.365H447.443V176.396H453.36V176.171C453.36 175.761 453.285 175.395 453.134 175.074C452.991 174.746 452.772 174.486 452.478 174.294C452.184 174.103 451.808 174.007 451.35 174.007C450.96 174.007 450.625 174.093 450.345 174.264C450.065 174.435 449.836 174.674 449.658 174.981C449.487 175.289 449.357 175.651 449.269 176.068C449.187 176.479 449.146 176.93 449.146 177.422V177.832C449.146 178.276 449.207 178.687 449.33 179.062C449.46 179.438 449.641 179.763 449.874 180.037C450.113 180.31 450.4 180.522 450.735 180.672C451.077 180.823 451.463 180.898 451.894 180.898C452.427 180.898 452.922 180.795 453.38 180.59C453.845 180.378 454.245 180.061 454.58 179.637L456.016 181.195C455.783 181.53 455.465 181.852 455.062 182.159C454.666 182.467 454.187 182.72 453.626 182.918C453.066 183.109 452.427 183.205 451.709 183.205Z" fill="#ECFAFF"/>
<rect x="492" y="47" width="92" height="32" rx="5" fill="#00A6CA"/>
<path d="M511.917 71H508.666L508.687 68.6006H511.917C512.723 68.6006 513.403 68.4194 513.957 68.0571C514.511 67.688 514.928 67.1514 515.208 66.4473C515.495 65.7432 515.639 64.8921 515.639 63.894V63.166C515.639 62.4004 515.557 61.7271 515.393 61.146C515.235 60.5649 515 60.0762 514.685 59.6797C514.371 59.2832 513.984 58.9858 513.526 58.7876C513.068 58.5825 512.542 58.48 511.947 58.48H508.604V56.0703H511.947C512.945 56.0703 513.858 56.2412 514.685 56.583C515.519 56.918 516.24 57.3999 516.849 58.0288C517.457 58.6577 517.925 59.4097 518.253 60.2847C518.588 61.1528 518.756 62.1201 518.756 63.1865V63.894C518.756 64.9536 518.588 65.9209 518.253 66.7959C517.925 67.6709 517.457 68.4229 516.849 69.0518C516.247 69.6738 515.526 70.1558 514.685 70.4976C513.851 70.8325 512.928 71 511.917 71ZM510.409 56.0703V71H507.333V56.0703H510.409ZM520.335 65.5654V65.3501C520.335 64.5366 520.451 63.7881 520.684 63.1045C520.916 62.4141 521.254 61.8159 521.699 61.3101C522.143 60.8042 522.69 60.4111 523.339 60.1309C523.989 59.8438 524.734 59.7002 525.575 59.7002C526.416 59.7002 527.164 59.8438 527.82 60.1309C528.477 60.4111 529.027 60.8042 529.471 61.3101C529.922 61.8159 530.264 62.4141 530.497 63.1045C530.729 63.7881 530.845 64.5366 530.845 65.3501V65.5654C530.845 66.3721 530.729 67.1206 530.497 67.811C530.264 68.4946 529.922 69.0928 529.471 69.6055C529.027 70.1113 528.48 70.5044 527.831 70.7847C527.181 71.0649 526.436 71.2051 525.595 71.2051C524.754 71.2051 524.006 71.0649 523.35 70.7847C522.7 70.5044 522.15 70.1113 521.699 69.6055C521.254 69.0928 520.916 68.4946 520.684 67.811C520.451 67.1206 520.335 66.3721 520.335 65.5654ZM523.288 65.3501V65.5654C523.288 66.0303 523.329 66.4644 523.411 66.8677C523.493 67.271 523.623 67.6265 523.801 67.9341C523.985 68.2349 524.225 68.4707 524.519 68.6416C524.812 68.8125 525.171 68.8979 525.595 68.8979C526.005 68.8979 526.357 68.8125 526.651 68.6416C526.945 68.4707 527.181 68.2349 527.359 67.9341C527.537 67.6265 527.667 67.271 527.749 66.8677C527.837 66.4644 527.882 66.0303 527.882 65.5654V65.3501C527.882 64.8989 527.837 64.4751 527.749 64.0786C527.667 63.6753 527.533 63.3198 527.349 63.0122C527.171 62.6978 526.935 62.4517 526.641 62.2739C526.347 62.0962 525.992 62.0073 525.575 62.0073C525.158 62.0073 524.802 62.0962 524.508 62.2739C524.221 62.4517 523.985 62.6978 523.801 63.0122C523.623 63.3198 523.493 63.6753 523.411 64.0786C523.329 64.4751 523.288 64.8989 523.288 65.3501ZM537.244 68.8979C537.606 68.8979 537.927 68.8296 538.208 68.6929C538.488 68.5493 538.707 68.3511 538.864 68.0981C539.028 67.8384 539.113 67.5342 539.12 67.1855H541.899C541.892 67.9648 541.684 68.6587 541.273 69.2671C540.863 69.8687 540.313 70.3438 539.623 70.6924C538.932 71.0342 538.16 71.2051 537.305 71.2051C536.444 71.2051 535.692 71.0615 535.049 70.7744C534.414 70.4873 533.884 70.0908 533.46 69.585C533.036 69.0723 532.718 68.4775 532.506 67.8008C532.294 67.1172 532.188 66.3857 532.188 65.6064V65.3091C532.188 64.5229 532.294 63.7915 532.506 63.1147C532.718 62.4312 533.036 61.8364 533.46 61.3306C533.884 60.8179 534.414 60.418 535.049 60.1309C535.685 59.8438 536.43 59.7002 537.285 59.7002C538.194 59.7002 538.99 59.8745 539.674 60.2231C540.364 60.5718 540.904 61.0708 541.294 61.7202C541.69 62.3628 541.892 63.125 541.899 64.0068H539.12C539.113 63.6377 539.035 63.3027 538.884 63.002C538.741 62.7012 538.529 62.4619 538.249 62.2842C537.975 62.0996 537.637 62.0073 537.233 62.0073C536.803 62.0073 536.451 62.0996 536.177 62.2842C535.904 62.4619 535.692 62.708 535.542 63.0225C535.391 63.3301 535.285 63.6821 535.224 64.0786C535.169 64.4683 535.142 64.8784 535.142 65.3091V65.6064C535.142 66.0371 535.169 66.4507 535.224 66.8472C535.278 67.2437 535.381 67.5957 535.531 67.9033C535.688 68.2109 535.904 68.4536 536.177 68.6313C536.451 68.8091 536.806 68.8979 537.244 68.8979ZM546.564 55.2397V71H543.611V55.2397H546.564ZM553.558 59.9053L548.738 65.4014L546.154 68.0161L545.078 65.8833L547.128 63.2788L550.01 59.9053H553.558ZM550.492 71L547.21 65.873L549.251 64.0889L553.896 71H550.492ZM559.73 71.2051C558.869 71.2051 558.097 71.0684 557.413 70.7949C556.729 70.5146 556.148 70.1284 555.67 69.6362C555.198 69.144 554.836 68.5732 554.583 67.9238C554.33 67.2676 554.204 66.5703 554.204 65.832V65.4219C554.204 64.5811 554.323 63.812 554.562 63.1147C554.802 62.4175 555.144 61.8125 555.588 61.2998C556.039 60.7871 556.586 60.394 557.229 60.1206C557.871 59.8403 558.596 59.7002 559.402 59.7002C560.188 59.7002 560.886 59.8301 561.494 60.0898C562.103 60.3496 562.612 60.7188 563.022 61.1973C563.439 61.6758 563.753 62.25 563.965 62.9199C564.177 63.583 564.283 64.3213 564.283 65.1348V66.3652H555.465V64.3965H561.381V64.1709C561.381 63.7607 561.306 63.395 561.156 63.0737C561.012 62.7456 560.793 62.4858 560.5 62.2944C560.206 62.103 559.83 62.0073 559.372 62.0073C558.982 62.0073 558.647 62.0928 558.367 62.2637C558.086 62.4346 557.857 62.6738 557.68 62.9814C557.509 63.2891 557.379 63.6514 557.29 64.0684C557.208 64.4785 557.167 64.9297 557.167 65.4219V65.832C557.167 66.2764 557.229 66.6865 557.352 67.0625C557.481 67.4385 557.663 67.7632 557.895 68.0366C558.134 68.3101 558.421 68.522 558.756 68.6724C559.098 68.8228 559.484 68.8979 559.915 68.8979C560.448 68.8979 560.944 68.7954 561.402 68.5903C561.867 68.3784 562.267 68.0605 562.602 67.6367L564.037 69.1953C563.805 69.5303 563.487 69.8516 563.083 70.1592C562.687 70.4668 562.208 70.7197 561.648 70.918C561.087 71.1094 560.448 71.2051 559.73 71.2051ZM568.918 62.3252V71H565.965V59.9053H568.744L568.918 62.3252ZM572.261 59.8335L572.209 62.5713C572.066 62.5508 571.892 62.5337 571.687 62.52C571.488 62.4995 571.307 62.4893 571.143 62.4893C570.726 62.4893 570.364 62.5439 570.056 62.6533C569.755 62.7559 569.502 62.9097 569.297 63.1147C569.099 63.3198 568.949 63.5693 568.846 63.8633C568.75 64.1572 568.696 64.4922 568.682 64.8682L568.087 64.6836C568.087 63.9658 568.159 63.3062 568.303 62.7046C568.446 62.0962 568.655 61.5664 568.928 61.1152C569.208 60.6641 569.55 60.3154 569.954 60.0693C570.357 59.8232 570.818 59.7002 571.338 59.7002C571.502 59.7002 571.669 59.7139 571.84 59.7412C572.011 59.7617 572.151 59.7925 572.261 59.8335Z" fill="#ECFAFF"/>
<path d="M21.0552 25.0474H24.1211C24.0596 26.0522 23.7827 26.9443 23.2905 27.7236C22.8052 28.5029 22.125 29.1113 21.25 29.5488C20.3818 29.9863 19.3359 30.2051 18.1123 30.2051C17.1553 30.2051 16.2974 30.041 15.5386 29.7129C14.7798 29.3779 14.1304 28.8994 13.5903 28.2773C13.0571 27.6553 12.6504 26.9033 12.3701 26.0215C12.0898 25.1396 11.9497 24.1519 11.9497 23.0581V22.0225C11.9497 20.9287 12.0933 19.9409 12.3804 19.0591C12.6743 18.1704 13.0913 17.415 13.6313 16.793C14.1782 16.1709 14.8311 15.6924 15.5898 15.3574C16.3486 15.0225 17.1963 14.855 18.1328 14.855C19.377 14.855 20.4263 15.0806 21.2808 15.5317C22.1421 15.9829 22.8086 16.605 23.2803 17.3979C23.7588 18.1909 24.0459 19.0933 24.1416 20.105H21.0654C21.0312 19.5034 20.9116 18.9941 20.7065 18.5771C20.5015 18.1533 20.1904 17.8354 19.7734 17.6235C19.3633 17.4048 18.8164 17.2954 18.1328 17.2954C17.6201 17.2954 17.1724 17.3911 16.7896 17.5825C16.4067 17.7739 16.0854 18.0645 15.8257 18.4541C15.5659 18.8438 15.3711 19.3359 15.2412 19.9307C15.1182 20.5186 15.0566 21.209 15.0566 22.002V23.0581C15.0566 23.8306 15.1147 24.5107 15.231 25.0986C15.3472 25.6797 15.5249 26.1719 15.7642 26.5752C16.0103 26.9717 16.3247 27.2725 16.7075 27.4775C17.0972 27.6758 17.5654 27.7749 18.1123 27.7749C18.7549 27.7749 19.2847 27.6724 19.7017 27.4673C20.1187 27.2622 20.4365 26.958 20.6553 26.5547C20.8809 26.1514 21.0142 25.6489 21.0552 25.0474ZM25.4849 24.5654V24.3501C25.4849 23.5366 25.6011 22.7881 25.8335 22.1045C26.0659 21.4141 26.4043 20.8159 26.8486 20.3101C27.293 19.8042 27.8398 19.4111 28.4893 19.1309C29.1387 18.8438 29.8838 18.7002 30.7246 18.7002C31.5654 18.7002 32.314 18.8438 32.9702 19.1309C33.6265 19.4111 34.1768 19.8042 34.6211 20.3101C35.0723 20.8159 35.4141 21.4141 35.6465 22.1045C35.8789 22.7881 35.9951 23.5366 35.9951 24.3501V24.5654C35.9951 25.3721 35.8789 26.1206 35.6465 26.811C35.4141 27.4946 35.0723 28.0928 34.6211 28.6055C34.1768 29.1113 33.6299 29.5044 32.9805 29.7847C32.3311 30.0649 31.5859 30.2051 30.7451 30.2051C29.9043 30.2051 29.1558 30.0649 28.4995 29.7847C27.8501 29.5044 27.2998 29.1113 26.8486 28.6055C26.4043 28.0928 26.0659 27.4946 25.8335 26.811C25.6011 26.1206 25.4849 25.3721 25.4849 24.5654ZM28.438 24.3501V24.5654C28.438 25.0303 28.479 25.4644 28.561 25.8677C28.6431 26.271 28.7729 26.6265 28.9507 26.9341C29.1353 27.2349 29.3745 27.4707 29.6685 27.6416C29.9624 27.8125 30.3213 27.8979 30.7451 27.8979C31.1553 27.8979 31.5073 27.8125 31.8013 27.6416C32.0952 27.4707 32.3311 27.2349 32.5088 26.9341C32.6865 26.6265 32.8164 26.271 32.8984 25.8677C32.9873 25.4644 33.0317 25.0303 33.0317 24.5654V24.3501C33.0317 23.8989 32.9873 23.4751 32.8984 23.0786C32.8164 22.6753 32.6831 22.3198 32.4985 22.0122C32.3208 21.6978 32.085 21.4517 31.791 21.2739C31.4971 21.0962 31.1416 21.0073 30.7246 21.0073C30.3076 21.0073 29.9521 21.0962 29.6582 21.2739C29.3711 21.4517 29.1353 21.6978 28.9507 22.0122C28.7729 22.3198 28.6431 22.6753 28.561 23.0786C28.479 23.4751 28.438 23.8989 28.438 24.3501ZM40.7017 21.2739V30H37.7485V18.9053H40.5171L40.7017 21.2739ZM40.271 24.063H39.4712C39.4712 23.2427 39.5771 22.5044 39.7891 21.8481C40.001 21.1851 40.2983 20.6211 40.6812 20.1562C41.064 19.6846 41.5186 19.3257 42.0449 19.0796C42.5781 18.8267 43.1729 18.7002 43.8291 18.7002C44.3486 18.7002 44.8237 18.7754 45.2544 18.9258C45.6851 19.0762 46.0542 19.3154 46.3618 19.6436C46.6763 19.9717 46.9155 20.4058 47.0796 20.9458C47.2505 21.4858 47.3359 22.1455 47.3359 22.9248V30H44.3623V22.9146C44.3623 22.4224 44.2939 22.0396 44.1572 21.7661C44.0205 21.4927 43.8188 21.3013 43.5522 21.1919C43.2925 21.0757 42.9712 21.0176 42.5884 21.0176C42.1919 21.0176 41.8467 21.0962 41.5527 21.2534C41.2656 21.4106 41.0264 21.6294 40.835 21.9097C40.6504 22.1831 40.5103 22.5044 40.4146 22.8735C40.3188 23.2427 40.271 23.6392 40.271 24.063ZM55.0161 18.9053V20.9971H48.5562V18.9053H55.0161ZM50.1558 16.1675H53.1089V26.6572C53.1089 26.9785 53.1499 27.2246 53.2319 27.3955C53.3208 27.5664 53.4507 27.686 53.6216 27.7544C53.7925 27.8159 54.0078 27.8467 54.2676 27.8467C54.4521 27.8467 54.6162 27.8398 54.7598 27.8262C54.9102 27.8057 55.0366 27.7852 55.1392 27.7646L55.1494 29.9385C54.8965 30.0205 54.623 30.0854 54.3291 30.1333C54.0352 30.1812 53.7104 30.2051 53.355 30.2051C52.7056 30.2051 52.1382 30.0991 51.6528 29.8872C51.1743 29.6685 50.8052 29.3198 50.5454 28.8413C50.2856 28.3628 50.1558 27.7339 50.1558 26.9546V16.1675ZM59.6509 21.3252V30H56.6978V18.9053H59.4766L59.6509 21.3252ZM62.9937 18.8335L62.9424 21.5713C62.7988 21.5508 62.6245 21.5337 62.4194 21.52C62.2212 21.4995 62.04 21.4893 61.876 21.4893C61.459 21.4893 61.0967 21.5439 60.7891 21.6533C60.4883 21.7559 60.2354 21.9097 60.0303 22.1147C59.832 22.3198 59.6816 22.5693 59.5791 22.8633C59.4834 23.1572 59.4287 23.4922 59.415 23.8682L58.8203 23.6836C58.8203 22.9658 58.8921 22.3062 59.0356 21.7046C59.1792 21.0962 59.3877 20.5664 59.6611 20.1152C59.9414 19.6641 60.2832 19.3154 60.6865 19.0693C61.0898 18.8232 61.5513 18.7002 62.0708 18.7002C62.2349 18.7002 62.4023 18.7139 62.5732 18.7412C62.7441 18.7617 62.8843 18.7925 62.9937 18.8335ZM63.6089 24.5654V24.3501C63.6089 23.5366 63.7251 22.7881 63.9575 22.1045C64.1899 21.4141 64.5283 20.8159 64.9727 20.3101C65.417 19.8042 65.9639 19.4111 66.6133 19.1309C67.2627 18.8438 68.0078 18.7002 68.8486 18.7002C69.6895 18.7002 70.438 18.8438 71.0942 19.1309C71.7505 19.4111 72.3008 19.8042 72.7451 20.3101C73.1963 20.8159 73.5381 21.4141 73.7705 22.1045C74.0029 22.7881 74.1191 23.5366 74.1191 24.3501V24.5654C74.1191 25.3721 74.0029 26.1206 73.7705 26.811C73.5381 27.4946 73.1963 28.0928 72.7451 28.6055C72.3008 29.1113 71.7539 29.5044 71.1045 29.7847C70.4551 30.0649 69.71 30.2051 68.8691 30.2051C68.0283 30.2051 67.2798 30.0649 66.6235 29.7847C65.9741 29.5044 65.4238 29.1113 64.9727 28.6055C64.5283 28.0928 64.1899 27.4946 63.9575 26.811C63.7251 26.1206 63.6089 25.3721 63.6089 24.5654ZM66.562 24.3501V24.5654C66.562 25.0303 66.603 25.4644 66.6851 25.8677C66.7671 26.271 66.897 26.6265 67.0747 26.9341C67.2593 27.2349 67.4985 27.4707 67.7925 27.6416C68.0864 27.8125 68.4453 27.8979 68.8691 27.8979C69.2793 27.8979 69.6313 27.8125 69.9253 27.6416C70.2192 27.4707 70.4551 27.2349 70.6328 26.9341C70.8105 26.6265 70.9404 26.271 71.0225 25.8677C71.1113 25.4644 71.1558 25.0303 71.1558 24.5654V24.3501C71.1558 23.8989 71.1113 23.4751 71.0225 23.0786C70.9404 22.6753 70.8071 22.3198 70.6226 22.0122C70.4448 21.6978 70.209 21.4517 69.915 21.2739C69.6211 21.0962 69.2656 21.0073 68.8486 21.0073C68.4316 21.0073 68.0762 21.0962 67.7822 21.2739C67.4951 21.4517 67.2593 21.6978 67.0747 22.0122C66.897 22.3198 66.7671 22.6753 66.6851 23.0786C66.603 23.4751 66.562 23.8989 66.562 24.3501ZM79.0513 14.25V30H76.0879V14.25H79.0513ZM84.6089 14.25V30H81.6455V14.25H84.6089ZM92.1558 30.2051C91.2944 30.2051 90.522 30.0684 89.8384 29.7949C89.1548 29.5146 88.5737 29.1284 88.0952 28.6362C87.6235 28.144 87.2612 27.5732 87.0083 26.9238C86.7554 26.2676 86.6289 25.5703 86.6289 24.832V24.4219C86.6289 23.5811 86.7485 22.812 86.9878 22.1147C87.2271 21.4175 87.5688 20.8125 88.0132 20.2998C88.4644 19.7871 89.0112 19.394 89.6538 19.1206C90.2964 18.8403 91.021 18.7002 91.8276 18.7002C92.6138 18.7002 93.311 18.8301 93.9194 19.0898C94.5278 19.3496 95.0371 19.7188 95.4473 20.1973C95.8643 20.6758 96.1787 21.25 96.3906 21.9199C96.6025 22.583 96.7085 23.3213 96.7085 24.1348V25.3652H87.8901V23.3965H93.8066V23.1709C93.8066 22.7607 93.7314 22.395 93.5811 22.0737C93.4375 21.7456 93.2188 21.4858 92.9248 21.2944C92.6309 21.103 92.2549 21.0073 91.7969 21.0073C91.4072 21.0073 91.0723 21.0928 90.792 21.2637C90.5117 21.4346 90.2827 21.6738 90.105 21.9814C89.9341 22.2891 89.8042 22.6514 89.7153 23.0684C89.6333 23.4785 89.5923 23.9297 89.5923 24.4219V24.832C89.5923 25.2764 89.6538 25.6865 89.7769 26.0625C89.9067 26.4385 90.0879 26.7632 90.3203 27.0366C90.5596 27.3101 90.8467 27.522 91.1816 27.6724C91.5234 27.8228 91.9097 27.8979 92.3403 27.8979C92.8735 27.8979 93.3691 27.7954 93.8271 27.5903C94.292 27.3784 94.6919 27.0605 95.0269 26.6367L96.4624 28.1953C96.23 28.5303 95.9121 28.8516 95.5088 29.1592C95.1123 29.4668 94.6338 29.7197 94.0732 29.918C93.5127 30.1094 92.8735 30.2051 92.1558 30.2051ZM101.343 21.3252V30H98.3901V18.9053H101.169L101.343 21.3252ZM104.686 18.8335L104.635 21.5713C104.491 21.5508 104.317 21.5337 104.112 21.52C103.914 21.4995 103.732 21.4893 103.568 21.4893C103.151 21.4893 102.789 21.5439 102.481 21.6533C102.181 21.7559 101.928 21.9097 101.723 22.1147C101.524 22.3198 101.374 22.5693 101.271 22.8633C101.176 23.1572 101.121 23.4922 101.107 23.8682L100.513 23.6836C100.513 22.9658 100.584 22.3062 100.728 21.7046C100.872 21.0962 101.08 20.5664 101.354 20.1152C101.634 19.6641 101.976 19.3154 102.379 19.0693C102.782 18.8232 103.244 18.7002 103.763 18.7002C103.927 18.7002 104.095 18.7139 104.266 18.7412C104.437 18.7617 104.577 18.7925 104.686 18.8335Z" fill="#606060"/>
<path d="M289.02 30H285.769L285.79 27.6006H289.02C289.826 27.6006 290.506 27.4194 291.06 27.0571C291.614 26.688 292.031 26.1514 292.311 25.4473C292.598 24.7432 292.742 23.8921 292.742 22.894V22.166C292.742 21.4004 292.66 20.7271 292.496 20.146C292.338 19.5649 292.103 19.0762 291.788 18.6797C291.474 18.2832 291.087 17.9858 290.629 17.7876C290.171 17.5825 289.645 17.48 289.05 17.48H285.708V15.0703H289.05C290.048 15.0703 290.961 15.2412 291.788 15.583C292.622 15.918 293.343 16.3999 293.952 17.0288C294.56 17.6577 295.028 18.4097 295.356 19.2847C295.691 20.1528 295.859 21.1201 295.859 22.1865V22.894C295.859 23.9536 295.691 24.9209 295.356 25.7959C295.028 26.6709 294.56 27.4229 293.952 28.0518C293.35 28.6738 292.629 29.1558 291.788 29.4976C290.954 29.8325 290.031 30 289.02 30ZM287.512 15.0703V30H284.436V15.0703H287.512ZM300.863 21.3252V30H297.91V18.9053H300.688L300.863 21.3252ZM304.206 18.8335L304.154 21.5713C304.011 21.5508 303.836 21.5337 303.631 21.52C303.433 21.4995 303.252 21.4893 303.088 21.4893C302.671 21.4893 302.309 21.5439 302.001 21.6533C301.7 21.7559 301.447 21.9097 301.242 22.1147C301.044 22.3198 300.894 22.5693 300.791 22.8633C300.695 23.1572 300.641 23.4922 300.627 23.8682L300.032 23.6836C300.032 22.9658 300.104 22.3062 300.248 21.7046C300.391 21.0962 300.6 20.5664 300.873 20.1152C301.153 19.6641 301.495 19.3154 301.898 19.0693C302.302 18.8232 302.763 18.7002 303.283 18.7002C303.447 18.7002 303.614 18.7139 303.785 18.7412C303.956 18.7617 304.096 18.7925 304.206 18.8335ZM304.821 24.5654V24.3501C304.821 23.5366 304.937 22.7881 305.169 22.1045C305.402 21.4141 305.74 20.8159 306.185 20.3101C306.629 19.8042 307.176 19.4111 307.825 19.1309C308.475 18.8438 309.22 18.7002 310.061 18.7002C310.901 18.7002 311.65 18.8438 312.306 19.1309C312.962 19.4111 313.513 19.8042 313.957 20.3101C314.408 20.8159 314.75 21.4141 314.982 22.1045C315.215 22.7881 315.331 23.5366 315.331 24.3501V24.5654C315.331 25.3721 315.215 26.1206 314.982 26.811C314.75 27.4946 314.408 28.0928 313.957 28.6055C313.513 29.1113 312.966 29.5044 312.316 29.7847C311.667 30.0649 310.922 30.2051 310.081 30.2051C309.24 30.2051 308.492 30.0649 307.835 29.7847C307.186 29.5044 306.636 29.1113 306.185 28.6055C305.74 28.0928 305.402 27.4946 305.169 26.811C304.937 26.1206 304.821 25.3721 304.821 24.5654ZM307.774 24.3501V24.5654C307.774 25.0303 307.815 25.4644 307.897 25.8677C307.979 26.271 308.109 26.6265 308.287 26.9341C308.471 27.2349 308.71 27.4707 309.004 27.6416C309.298 27.8125 309.657 27.8979 310.081 27.8979C310.491 27.8979 310.843 27.8125 311.137 27.6416C311.431 27.4707 311.667 27.2349 311.845 26.9341C312.022 26.6265 312.152 26.271 312.234 25.8677C312.323 25.4644 312.368 25.0303 312.368 24.5654V24.3501C312.368 23.8989 312.323 23.4751 312.234 23.0786C312.152 22.6753 312.019 22.3198 311.834 22.0122C311.657 21.6978 311.421 21.4517 311.127 21.2739C310.833 21.0962 310.478 21.0073 310.061 21.0073C309.644 21.0073 309.288 21.0962 308.994 21.2739C308.707 21.4517 308.471 21.6978 308.287 22.0122C308.109 22.3198 307.979 22.6753 307.897 23.0786C307.815 23.4751 307.774 23.8989 307.774 24.3501ZM320.038 21.2739V30H317.084V18.9053H319.853L320.038 21.2739ZM319.607 24.063H318.807C318.807 23.2427 318.913 22.5044 319.125 21.8481C319.337 21.1851 319.634 20.6211 320.017 20.1562C320.4 19.6846 320.854 19.3257 321.381 19.0796C321.914 18.8267 322.509 18.7002 323.165 18.7002C323.685 18.7002 324.16 18.7754 324.59 18.9258C325.021 19.0762 325.39 19.3154 325.698 19.6436C326.012 19.9717 326.251 20.4058 326.416 20.9458C326.586 21.4858 326.672 22.1455 326.672 22.9248V30H323.698V22.9146C323.698 22.4224 323.63 22.0396 323.493 21.7661C323.356 21.4927 323.155 21.3013 322.888 21.1919C322.628 21.0757 322.307 21.0176 321.924 21.0176C321.528 21.0176 321.183 21.0962 320.889 21.2534C320.602 21.4106 320.362 21.6294 320.171 21.9097C319.986 22.1831 319.846 22.5044 319.75 22.8735C319.655 23.2427 319.607 23.6392 319.607 24.063ZM334.024 30.2051C333.163 30.2051 332.39 30.0684 331.707 29.7949C331.023 29.5146 330.442 29.1284 329.963 28.6362C329.492 28.144 329.129 27.5732 328.876 26.9238C328.624 26.2676 328.497 25.5703 328.497 24.832V24.4219C328.497 23.5811 328.617 22.812 328.856 22.1147C329.095 21.4175 329.437 20.8125 329.881 20.2998C330.333 19.7871 330.879 19.394 331.522 19.1206C332.165 18.8403 332.889 18.7002 333.696 18.7002C334.482 18.7002 335.179 18.8301 335.788 19.0898C336.396 19.3496 336.905 19.7188 337.315 20.1973C337.732 20.6758 338.047 21.25 338.259 21.9199C338.471 22.583 338.577 23.3213 338.577 24.1348V25.3652H329.758V23.3965H335.675V23.1709C335.675 22.7607 335.6 22.395 335.449 22.0737C335.306 21.7456 335.087 21.4858 334.793 21.2944C334.499 21.103 334.123 21.0073 333.665 21.0073C333.275 21.0073 332.94 21.0928 332.66 21.2637C332.38 21.4346 332.151 21.6738 331.973 21.9814C331.802 22.2891 331.672 22.6514 331.583 23.0684C331.501 23.4785 331.46 23.9297 331.46 24.4219V24.832C331.46 25.2764 331.522 25.6865 331.645 26.0625C331.775 26.4385 331.956 26.7632 332.188 27.0366C332.428 27.3101 332.715 27.522 333.05 27.6724C333.392 27.8228 333.778 27.8979 334.208 27.8979C334.742 27.8979 335.237 27.7954 335.695 27.5903C336.16 27.3784 336.56 27.0605 336.895 26.6367L338.331 28.1953C338.098 28.5303 337.78 28.8516 337.377 29.1592C336.98 29.4668 336.502 29.7197 335.941 29.918C335.381 30.1094 334.742 30.2051 334.024 30.2051ZM346.257 26.9341C346.257 26.7222 346.195 26.5308 346.072 26.3599C345.949 26.189 345.72 26.0317 345.385 25.8882C345.057 25.7378 344.582 25.6011 343.96 25.478C343.399 25.355 342.876 25.2012 342.391 25.0166C341.913 24.8252 341.496 24.5962 341.14 24.3296C340.792 24.063 340.518 23.7485 340.32 23.3862C340.122 23.0171 340.022 22.5967 340.022 22.125C340.022 21.6602 340.122 21.2227 340.32 20.8125C340.525 20.4023 340.815 20.04 341.191 19.7256C341.574 19.4043 342.039 19.1548 342.586 18.9771C343.14 18.7925 343.762 18.7002 344.452 18.7002C345.416 18.7002 346.243 18.854 346.934 19.1616C347.631 19.4692 348.164 19.8931 348.533 20.4331C348.909 20.9663 349.097 21.5747 349.097 22.2583H346.144C346.144 21.9712 346.083 21.7148 345.959 21.4893C345.843 21.2568 345.659 21.0757 345.406 20.9458C345.16 20.8091 344.838 20.7407 344.442 20.7407C344.114 20.7407 343.83 20.7988 343.591 20.915C343.352 21.0244 343.167 21.1748 343.037 21.3662C342.914 21.5508 342.853 21.7559 342.853 21.9814C342.853 22.1523 342.887 22.3062 342.955 22.4429C343.03 22.5728 343.15 22.6924 343.314 22.8018C343.478 22.9111 343.69 23.0137 343.95 23.1094C344.216 23.1982 344.544 23.2803 344.934 23.3555C345.734 23.5195 346.448 23.7349 347.077 24.0015C347.706 24.2612 348.205 24.6167 348.574 25.0679C348.943 25.5122 349.128 26.0967 349.128 26.8213C349.128 27.3135 349.019 27.7646 348.8 28.1748C348.581 28.585 348.267 28.9438 347.856 29.2515C347.446 29.5522 346.954 29.7881 346.38 29.959C345.812 30.123 345.173 30.2051 344.462 30.2051C343.43 30.2051 342.555 30.0205 341.837 29.6514C341.126 29.2822 340.586 28.814 340.217 28.2466C339.855 27.6724 339.674 27.0845 339.674 26.4829H342.473C342.487 26.8862 342.589 27.2109 342.781 27.457C342.979 27.7031 343.229 27.8809 343.529 27.9902C343.837 28.0996 344.168 28.1543 344.524 28.1543C344.907 28.1543 345.225 28.103 345.478 28.0005C345.73 27.8911 345.922 27.7476 346.052 27.5698C346.188 27.3853 346.257 27.1733 346.257 26.9341Z" fill="#606060"/>
<rect x="24" y="53" width="133" height="37" rx="5" fill="#0C64E9"/>
<path d="M50.1055 75.0933C50.1055 74.8267 50.0645 74.5874 49.9824 74.3755C49.9072 74.1567 49.7637 73.9585 49.5518 73.7808C49.3398 73.5962 49.0425 73.415 48.6597 73.2373C48.2769 73.0596 47.7812 72.875 47.1729 72.6836C46.4961 72.4648 45.8535 72.2188 45.2451 71.9453C44.6436 71.6719 44.1104 71.354 43.6455 70.9917C43.1875 70.6226 42.8252 70.1953 42.5586 69.71C42.2988 69.2246 42.1689 68.6606 42.1689 68.0181C42.1689 67.396 42.3057 66.832 42.5791 66.3262C42.8525 65.8135 43.2354 65.376 43.7275 65.0137C44.2197 64.6445 44.8008 64.3608 45.4707 64.1626C46.1475 63.9644 46.8892 63.8652 47.6958 63.8652C48.7964 63.8652 49.7568 64.0635 50.5771 64.46C51.3975 64.8564 52.0332 65.3999 52.4844 66.0903C52.9424 66.7808 53.1714 67.5703 53.1714 68.459H50.1157C50.1157 68.0215 50.0234 67.6387 49.8389 67.3105C49.6611 66.9756 49.3877 66.7124 49.0186 66.521C48.6562 66.3296 48.1982 66.2339 47.6445 66.2339C47.1113 66.2339 46.667 66.3159 46.3115 66.48C45.9561 66.6372 45.6895 66.8525 45.5117 67.126C45.334 67.3926 45.2451 67.6934 45.2451 68.0283C45.2451 68.2812 45.3066 68.5103 45.4297 68.7153C45.5596 68.9204 45.751 69.1118 46.0039 69.2896C46.2568 69.4673 46.5679 69.6348 46.937 69.792C47.3062 69.9492 47.7334 70.103 48.2188 70.2534C49.0322 70.4995 49.7466 70.7764 50.3618 71.084C50.9839 71.3916 51.5034 71.7368 51.9204 72.1196C52.3374 72.5024 52.6519 72.9365 52.8638 73.4219C53.0757 73.9072 53.1816 74.4575 53.1816 75.0728C53.1816 75.7222 53.0552 76.3032 52.8022 76.8159C52.5493 77.3286 52.1836 77.7627 51.7051 78.1182C51.2266 78.4736 50.6558 78.7437 49.9927 78.9282C49.3296 79.1128 48.5879 79.2051 47.7676 79.2051C47.0293 79.2051 46.3013 79.1094 45.5835 78.918C44.8657 78.7197 44.2129 78.4224 43.625 78.0259C43.0439 77.6294 42.5791 77.1235 42.2305 76.5083C41.8818 75.8931 41.7075 75.165 41.7075 74.3242H44.7939C44.7939 74.7891 44.8657 75.1821 45.0093 75.5034C45.1528 75.8247 45.3545 76.0845 45.6143 76.2827C45.8809 76.481 46.1953 76.6245 46.5576 76.7134C46.9268 76.8022 47.3301 76.8467 47.7676 76.8467C48.3008 76.8467 48.7383 76.7715 49.0801 76.6211C49.4287 76.4707 49.6851 76.2622 49.8491 75.9956C50.02 75.729 50.1055 75.4282 50.1055 75.0933ZM59.6724 76.8979C60.0347 76.8979 60.356 76.8296 60.6362 76.6929C60.9165 76.5493 61.1353 76.3511 61.2925 76.0981C61.4565 75.8384 61.542 75.5342 61.5488 75.1855H64.3276C64.3208 75.9648 64.1123 76.6587 63.7021 77.2671C63.292 77.8687 62.7417 78.3438 62.0513 78.6924C61.3608 79.0342 60.5884 79.2051 59.7339 79.2051C58.8726 79.2051 58.1206 79.0615 57.478 78.7744C56.8423 78.4873 56.3125 78.0908 55.8887 77.585C55.4648 77.0723 55.147 76.4775 54.9351 75.8008C54.7231 75.1172 54.6172 74.3857 54.6172 73.6064V73.3091C54.6172 72.5229 54.7231 71.7915 54.9351 71.1147C55.147 70.4312 55.4648 69.8364 55.8887 69.3306C56.3125 68.8179 56.8423 68.418 57.478 68.1309C58.1138 67.8438 58.8589 67.7002 59.7134 67.7002C60.6226 67.7002 61.4189 67.8745 62.1025 68.2231C62.793 68.5718 63.333 69.0708 63.7227 69.7202C64.1191 70.3628 64.3208 71.125 64.3276 72.0068H61.5488C61.542 71.6377 61.4634 71.3027 61.313 71.002C61.1694 70.7012 60.9575 70.4619 60.6772 70.2842C60.4038 70.0996 60.0654 70.0073 59.6621 70.0073C59.2314 70.0073 58.8794 70.0996 58.606 70.2842C58.3325 70.4619 58.1206 70.708 57.9702 71.0225C57.8198 71.3301 57.7139 71.6821 57.6523 72.0786C57.5977 72.4683 57.5703 72.8784 57.5703 73.3091V73.6064C57.5703 74.0371 57.5977 74.4507 57.6523 74.8472C57.707 75.2437 57.8096 75.5957 57.96 75.9033C58.1172 76.2109 58.3325 76.4536 58.606 76.6313C58.8794 76.8091 59.2349 76.8979 59.6724 76.8979ZM68.9214 63.25V79H65.9683V63.25H68.9214ZM68.501 73.063H67.6909C67.6978 72.2905 67.8003 71.5796 67.9985 70.9302C68.1968 70.2739 68.4805 69.7065 68.8496 69.228C69.2188 68.7427 69.6597 68.3667 70.1724 68.1001C70.6919 67.8335 71.2661 67.7002 71.895 67.7002C72.4419 67.7002 72.9375 67.7788 73.3818 67.936C73.833 68.0864 74.2192 68.3325 74.5405 68.6743C74.8687 69.0093 75.1216 69.4502 75.2993 69.9971C75.4771 70.5439 75.5659 71.207 75.5659 71.9863V79H72.5923V71.9658C72.5923 71.4736 72.5205 71.0874 72.377 70.8071C72.2402 70.52 72.0386 70.3184 71.772 70.2021C71.5122 70.0791 71.1909 70.0176 70.8081 70.0176C70.3843 70.0176 70.022 70.0962 69.7212 70.2534C69.4272 70.4106 69.1914 70.6294 69.0137 70.9097C68.8359 71.1831 68.7061 71.5044 68.624 71.8735C68.542 72.2427 68.501 72.6392 68.501 73.063ZM82.918 79.2051C82.0566 79.2051 81.2842 79.0684 80.6006 78.7949C79.917 78.5146 79.3359 78.1284 78.8574 77.6362C78.3857 77.144 78.0234 76.5732 77.7705 75.9238C77.5176 75.2676 77.3911 74.5703 77.3911 73.832V73.4219C77.3911 72.5811 77.5107 71.812 77.75 71.1147C77.9893 70.4175 78.3311 69.8125 78.7754 69.2998C79.2266 68.7871 79.7734 68.394 80.416 68.1206C81.0586 67.8403 81.7832 67.7002 82.5898 67.7002C83.376 67.7002 84.0732 67.8301 84.6816 68.0898C85.29 68.3496 85.7993 68.7188 86.2095 69.1973C86.6265 69.6758 86.9409 70.25 87.1528 70.9199C87.3647 71.583 87.4707 72.3213 87.4707 73.1348V74.3652H78.6523V72.3965H84.5688V72.1709C84.5688 71.7607 84.4937 71.395 84.3433 71.0737C84.1997 70.7456 83.981 70.4858 83.687 70.2944C83.3931 70.103 83.0171 70.0073 82.5591 70.0073C82.1694 70.0073 81.8345 70.0928 81.5542 70.2637C81.2739 70.4346 81.0449 70.6738 80.8672 70.9814C80.6963 71.2891 80.5664 71.6514 80.4775 72.0684C80.3955 72.4785 80.3545 72.9297 80.3545 73.4219V73.832C80.3545 74.2764 80.416 74.6865 80.5391 75.0625C80.6689 75.4385 80.8501 75.7632 81.0825 76.0366C81.3218 76.3101 81.6089 76.522 81.9438 76.6724C82.2856 76.8228 82.6719 76.8979 83.1025 76.8979C83.6357 76.8979 84.1313 76.7954 84.5894 76.5903C85.0542 76.3784 85.4541 76.0605 85.7891 75.6367L87.2246 77.1953C86.9922 77.5303 86.6743 77.8516 86.271 78.1592C85.8745 78.4668 85.396 78.7197 84.8354 78.918C84.2749 79.1094 83.6357 79.2051 82.918 79.2051ZM95.7046 76.5801V63.25H98.6782V79H96.002L95.7046 76.5801ZM88.6909 73.5859V73.3706C88.6909 72.5229 88.7866 71.7539 88.978 71.0635C89.1694 70.3662 89.4497 69.7681 89.8188 69.269C90.188 68.77 90.6426 68.3838 91.1826 68.1104C91.7227 67.8369 92.3379 67.7002 93.0283 67.7002C93.6777 67.7002 94.2451 67.8369 94.7305 68.1104C95.2227 68.3838 95.6396 68.7734 95.9814 69.2793C96.3301 69.7783 96.6104 70.3696 96.8223 71.0532C97.0342 71.73 97.188 72.4717 97.2837 73.2783V73.75C97.188 74.5225 97.0342 75.2402 96.8223 75.9033C96.6104 76.5664 96.3301 77.1475 95.9814 77.6465C95.6396 78.1387 95.2227 78.5215 94.7305 78.7949C94.2383 79.0684 93.6641 79.2051 93.0078 79.2051C92.3174 79.2051 91.7021 79.0649 91.1621 78.7847C90.6289 78.5044 90.1777 78.1113 89.8086 77.6055C89.4463 77.0996 89.1694 76.5049 88.978 75.8213C88.7866 75.1377 88.6909 74.3926 88.6909 73.5859ZM91.644 73.3706V73.5859C91.644 74.0439 91.6782 74.4712 91.7466 74.8677C91.8218 75.2642 91.9414 75.6162 92.1055 75.9238C92.2764 76.2246 92.4951 76.4604 92.7617 76.6313C93.0352 76.7954 93.3667 76.8774 93.7563 76.8774C94.2622 76.8774 94.6792 76.7646 95.0073 76.5391C95.3354 76.3066 95.585 75.9888 95.7559 75.5854C95.9336 75.1821 96.0361 74.7173 96.0635 74.1909V72.8477C96.043 72.417 95.9814 72.0308 95.8789 71.689C95.7832 71.3403 95.6396 71.043 95.4482 70.7969C95.2637 70.5508 95.0312 70.3594 94.751 70.2227C94.4775 70.0859 94.1528 70.0176 93.7769 70.0176C93.394 70.0176 93.0659 70.1064 92.7925 70.2842C92.519 70.4551 92.2969 70.6909 92.126 70.9917C91.9619 71.2925 91.8389 71.6479 91.7568 72.0581C91.6816 72.4614 91.644 72.8989 91.644 73.3706ZM107.548 76.3442V67.9053H110.501V79H107.722L107.548 76.3442ZM107.876 74.0679L108.748 74.0474C108.748 74.7856 108.662 75.4727 108.491 76.1084C108.32 76.7373 108.064 77.2842 107.722 77.749C107.38 78.207 106.95 78.5659 106.43 78.8257C105.911 79.0786 105.299 79.2051 104.595 79.2051C104.055 79.2051 103.556 79.1299 103.098 78.9795C102.646 78.8223 102.257 78.5796 101.929 78.2515C101.607 77.9165 101.354 77.4893 101.17 76.9697C100.992 76.4434 100.903 75.811 100.903 75.0728V67.9053H103.856V75.0933C103.856 75.4214 103.894 75.6982 103.969 75.9238C104.051 76.1494 104.164 76.334 104.308 76.4775C104.451 76.6211 104.619 76.7236 104.81 76.7852C105.008 76.8467 105.227 76.8774 105.466 76.8774C106.075 76.8774 106.553 76.7544 106.902 76.5083C107.257 76.2622 107.507 75.9272 107.65 75.5034C107.801 75.0728 107.876 74.5942 107.876 74.0679ZM115.874 63.25V79H112.911V63.25H115.874ZM123.421 79.2051C122.56 79.2051 121.787 79.0684 121.104 78.7949C120.42 78.5146 119.839 78.1284 119.36 77.6362C118.889 77.144 118.526 76.5732 118.273 75.9238C118.021 75.2676 117.894 74.5703 117.894 73.832V73.4219C117.894 72.5811 118.014 71.812 118.253 71.1147C118.492 70.4175 118.834 69.8125 119.278 69.2998C119.729 68.7871 120.276 68.394 120.919 68.1206C121.562 67.8403 122.286 67.7002 123.093 67.7002C123.879 67.7002 124.576 67.8301 125.185 68.0898C125.793 68.3496 126.302 68.7188 126.712 69.1973C127.129 69.6758 127.444 70.25 127.656 70.9199C127.868 71.583 127.974 72.3213 127.974 73.1348V74.3652H119.155V72.3965H125.072V72.1709C125.072 71.7607 124.997 71.395 124.846 71.0737C124.703 70.7456 124.484 70.4858 124.19 70.2944C123.896 70.103 123.52 70.0073 123.062 70.0073C122.672 70.0073 122.337 70.0928 122.057 70.2637C121.777 70.4346 121.548 70.6738 121.37 70.9814C121.199 71.2891 121.069 71.6514 120.98 72.0684C120.898 72.4785 120.857 72.9297 120.857 73.4219V73.832C120.857 74.2764 120.919 74.6865 121.042 75.0625C121.172 75.4385 121.353 75.7632 121.585 76.0366C121.825 76.3101 122.112 76.522 122.447 76.6724C122.789 76.8228 123.175 76.8979 123.605 76.8979C124.139 76.8979 124.634 76.7954 125.092 76.5903C125.557 76.3784 125.957 76.0605 126.292 75.6367L127.728 77.1953C127.495 77.5303 127.177 77.8516 126.774 78.1592C126.377 78.4668 125.899 78.7197 125.338 78.918C124.778 79.1094 124.139 79.2051 123.421 79.2051ZM132.608 70.3252V79H129.655V67.9053H132.434L132.608 70.3252ZM135.951 67.8335L135.9 70.5713C135.756 70.5508 135.582 70.5337 135.377 70.52C135.179 70.4995 134.998 70.4893 134.833 70.4893C134.417 70.4893 134.054 70.5439 133.747 70.6533C133.446 70.7559 133.193 70.9097 132.988 71.1147C132.79 71.3198 132.639 71.5693 132.537 71.8633C132.441 72.1572 132.386 72.4922 132.373 72.8682L131.778 72.6836C131.778 71.9658 131.85 71.3062 131.993 70.7046C132.137 70.0962 132.345 69.5664 132.619 69.1152C132.899 68.6641 133.241 68.3154 133.644 68.0693C134.047 67.8232 134.509 67.7002 135.028 67.7002C135.192 67.7002 135.36 67.7139 135.531 67.7412C135.702 67.7617 135.842 67.7925 135.951 67.8335Z" fill="#CBDEFB"/>
<rect x="292" y="48" width="133" height="37" rx="5" fill="#0C64E9"/>
<path d="M339.403 60.6235L335.343 73H332.072L337.619 58.0703H339.701L339.403 60.6235ZM342.777 73L338.706 60.6235L338.378 58.0703H340.48L346.058 73H342.777ZM342.592 67.4424V69.8521H334.707V67.4424H342.592ZM354.282 61.9053H356.958V72.6309C356.958 73.6426 356.732 74.5005 356.281 75.2046C355.837 75.9155 355.215 76.4521 354.415 76.8145C353.615 77.1836 352.686 77.3682 351.626 77.3682C351.161 77.3682 350.669 77.3066 350.149 77.1836C349.637 77.0605 349.145 76.8691 348.673 76.6094C348.208 76.3496 347.818 76.0215 347.504 75.625L348.806 73.8818C349.148 74.2783 349.544 74.5859 349.996 74.8047C350.447 75.0303 350.946 75.1431 351.493 75.1431C352.026 75.1431 352.477 75.0439 352.846 74.8457C353.215 74.6543 353.499 74.3706 353.697 73.9946C353.896 73.6255 353.995 73.1777 353.995 72.6514V64.4688L354.282 61.9053ZM346.817 67.5859V67.3706C346.817 66.5229 346.919 65.7539 347.125 65.0635C347.336 64.3662 347.634 63.7681 348.017 63.269C348.406 62.77 348.878 62.3838 349.432 62.1104C349.985 61.8369 350.611 61.7002 351.308 61.7002C352.046 61.7002 352.665 61.8369 353.164 62.1104C353.663 62.3838 354.073 62.7734 354.395 63.2793C354.716 63.7783 354.965 64.3696 355.143 65.0532C355.328 65.73 355.471 66.4717 355.574 67.2783V67.75C355.471 68.5225 355.317 69.2402 355.112 69.9033C354.907 70.5664 354.637 71.1475 354.302 71.6465C353.967 72.1387 353.55 72.5215 353.051 72.7949C352.559 73.0684 351.971 73.2051 351.288 73.2051C350.604 73.2051 349.985 73.0649 349.432 72.7847C348.885 72.5044 348.417 72.1113 348.027 71.6055C347.637 71.0996 347.336 70.5049 347.125 69.8213C346.919 69.1377 346.817 68.3926 346.817 67.5859ZM349.77 67.3706V67.5859C349.77 68.0439 349.814 68.4712 349.903 68.8677C349.992 69.2642 350.129 69.6162 350.313 69.9238C350.505 70.2246 350.741 70.4604 351.021 70.6313C351.308 70.7954 351.646 70.8774 352.036 70.8774C352.576 70.8774 353.017 70.7646 353.359 70.5391C353.701 70.3066 353.957 69.9888 354.128 69.5854C354.299 69.1821 354.398 68.7173 354.425 68.1909V66.8477C354.412 66.417 354.354 66.0308 354.251 65.689C354.148 65.3403 354.005 65.043 353.82 64.7969C353.636 64.5508 353.396 64.3594 353.103 64.2227C352.809 64.0859 352.46 64.0176 352.057 64.0176C351.667 64.0176 351.329 64.1064 351.042 64.2842C350.761 64.4551 350.525 64.6909 350.334 64.9917C350.149 65.2925 350.009 65.6479 349.914 66.0581C349.818 66.4614 349.77 66.8989 349.77 67.3706ZM364.361 73.2051C363.5 73.2051 362.728 73.0684 362.044 72.7949C361.36 72.5146 360.779 72.1284 360.301 71.6362C359.829 71.144 359.467 70.5732 359.214 69.9238C358.961 69.2676 358.834 68.5703 358.834 67.832V67.4219C358.834 66.5811 358.954 65.812 359.193 65.1147C359.433 64.4175 359.774 63.8125 360.219 63.2998C360.67 62.7871 361.217 62.394 361.859 62.1206C362.502 61.8403 363.227 61.7002 364.033 61.7002C364.819 61.7002 365.517 61.8301 366.125 62.0898C366.733 62.3496 367.243 62.7188 367.653 63.1973C368.07 63.6758 368.384 64.25 368.596 64.9199C368.808 65.583 368.914 66.3213 368.914 67.1348V68.3652H360.096V66.3965H366.012V66.1709C366.012 65.7607 365.937 65.395 365.787 65.0737C365.643 64.7456 365.424 64.4858 365.13 64.2944C364.836 64.103 364.46 64.0073 364.002 64.0073C363.613 64.0073 363.278 64.0928 362.998 64.2637C362.717 64.4346 362.488 64.6738 362.311 64.9814C362.14 65.2891 362.01 65.6514 361.921 66.0684C361.839 66.4785 361.798 66.9297 361.798 67.4219V67.832C361.798 68.2764 361.859 68.6865 361.982 69.0625C362.112 69.4385 362.293 69.7632 362.526 70.0366C362.765 70.3101 363.052 70.522 363.387 70.6724C363.729 70.8228 364.115 70.8979 364.546 70.8979C365.079 70.8979 365.575 70.7954 366.033 70.5903C366.498 70.3784 366.897 70.0605 367.232 69.6367L368.668 71.1953C368.436 71.5303 368.118 71.8516 367.714 72.1592C367.318 72.4668 366.839 72.7197 366.279 72.918C365.718 73.1094 365.079 73.2051 364.361 73.2051ZM373.487 64.2739V73H370.534V61.9053H373.303L373.487 64.2739ZM373.057 67.063H372.257C372.257 66.2427 372.363 65.5044 372.575 64.8481C372.787 64.1851 373.084 63.6211 373.467 63.1562C373.85 62.6846 374.304 62.3257 374.831 62.0796C375.364 61.8267 375.958 61.7002 376.615 61.7002C377.134 61.7002 377.609 61.7754 378.04 61.9258C378.471 62.0762 378.84 62.3154 379.147 62.6436C379.462 62.9717 379.701 63.4058 379.865 63.9458C380.036 64.4858 380.122 65.1455 380.122 65.9248V73H377.148V65.9146C377.148 65.4224 377.08 65.0396 376.943 64.7661C376.806 64.4927 376.604 64.3013 376.338 64.1919C376.078 64.0757 375.757 64.0176 375.374 64.0176C374.978 64.0176 374.632 64.0962 374.338 64.2534C374.051 64.4106 373.812 64.6294 373.621 64.9097C373.436 65.1831 373.296 65.5044 373.2 65.8735C373.104 66.2427 373.057 66.6392 373.057 67.063ZM387.802 61.9053V63.9971H381.342V61.9053H387.802ZM382.941 59.1675H385.895V69.6572C385.895 69.9785 385.936 70.2246 386.018 70.3955C386.106 70.5664 386.236 70.686 386.407 70.7544C386.578 70.8159 386.793 70.8467 387.053 70.8467C387.238 70.8467 387.402 70.8398 387.545 70.8262C387.696 70.8057 387.822 70.7852 387.925 70.7646L387.935 72.9385C387.682 73.0205 387.409 73.0854 387.115 73.1333C386.821 73.1812 386.496 73.2051 386.141 73.2051C385.491 73.2051 384.924 73.0991 384.438 72.8872C383.96 72.6685 383.591 72.3198 383.331 71.8413C383.071 71.3628 382.941 70.7339 382.941 69.9546V59.1675Z" fill="#CBDEFB"/>
<rect x="292" y="203" width="133" height="37" rx="5" fill="#0C64E9"/>
<path d="M326.987 224.047H330.053C329.992 225.052 329.715 225.944 329.223 226.724C328.737 227.503 328.057 228.111 327.182 228.549C326.314 228.986 325.268 229.205 324.044 229.205C323.087 229.205 322.229 229.041 321.471 228.713C320.712 228.378 320.062 227.899 319.522 227.277C318.989 226.655 318.583 225.903 318.302 225.021C318.022 224.14 317.882 223.152 317.882 222.058V221.022C317.882 219.929 318.025 218.941 318.312 218.059C318.606 217.17 319.023 216.415 319.563 215.793C320.11 215.171 320.763 214.692 321.522 214.357C322.281 214.022 323.128 213.855 324.065 213.855C325.309 213.855 326.358 214.081 327.213 214.532C328.074 214.983 328.741 215.605 329.212 216.398C329.691 217.191 329.978 218.093 330.074 219.105H326.998C326.963 218.503 326.844 217.994 326.639 217.577C326.434 217.153 326.123 216.835 325.706 216.624C325.295 216.405 324.749 216.295 324.065 216.295C323.552 216.295 323.104 216.391 322.722 216.583C322.339 216.774 322.018 217.064 321.758 217.454C321.498 217.844 321.303 218.336 321.173 218.931C321.05 219.519 320.989 220.209 320.989 221.002V222.058C320.989 222.831 321.047 223.511 321.163 224.099C321.279 224.68 321.457 225.172 321.696 225.575C321.942 225.972 322.257 226.272 322.64 226.478C323.029 226.676 323.498 226.775 324.044 226.775C324.687 226.775 325.217 226.672 325.634 226.467C326.051 226.262 326.369 225.958 326.587 225.555C326.813 225.151 326.946 224.649 326.987 224.047ZM336.995 229.205C336.134 229.205 335.361 229.068 334.678 228.795C333.994 228.515 333.413 228.128 332.935 227.636C332.463 227.144 332.101 226.573 331.848 225.924C331.595 225.268 331.468 224.57 331.468 223.832V223.422C331.468 222.581 331.588 221.812 331.827 221.115C332.066 220.417 332.408 219.812 332.853 219.3C333.304 218.787 333.851 218.394 334.493 218.121C335.136 217.84 335.86 217.7 336.667 217.7C337.453 217.7 338.15 217.83 338.759 218.09C339.367 218.35 339.876 218.719 340.287 219.197C340.704 219.676 341.018 220.25 341.23 220.92C341.442 221.583 341.548 222.321 341.548 223.135V224.365H332.729V222.396H338.646V222.171C338.646 221.761 338.571 221.395 338.42 221.074C338.277 220.746 338.058 220.486 337.764 220.294C337.47 220.103 337.094 220.007 336.636 220.007C336.247 220.007 335.912 220.093 335.631 220.264C335.351 220.435 335.122 220.674 334.944 220.981C334.773 221.289 334.644 221.651 334.555 222.068C334.473 222.479 334.432 222.93 334.432 223.422V223.832C334.432 224.276 334.493 224.687 334.616 225.062C334.746 225.438 334.927 225.763 335.16 226.037C335.399 226.31 335.686 226.522 336.021 226.672C336.363 226.823 336.749 226.898 337.18 226.898C337.713 226.898 338.208 226.795 338.667 226.59C339.131 226.378 339.531 226.061 339.866 225.637L341.302 227.195C341.069 227.53 340.751 227.852 340.348 228.159C339.952 228.467 339.473 228.72 338.913 228.918C338.352 229.109 337.713 229.205 336.995 229.205ZM346.183 220.325V229H343.229V217.905H346.008L346.183 220.325ZM349.525 217.833L349.474 220.571C349.331 220.551 349.156 220.534 348.951 220.52C348.753 220.5 348.572 220.489 348.408 220.489C347.991 220.489 347.628 220.544 347.321 220.653C347.02 220.756 346.767 220.91 346.562 221.115C346.364 221.32 346.213 221.569 346.111 221.863C346.015 222.157 345.96 222.492 345.947 222.868L345.352 222.684C345.352 221.966 345.424 221.306 345.567 220.705C345.711 220.096 345.919 219.566 346.193 219.115C346.473 218.664 346.815 218.315 347.218 218.069C347.622 217.823 348.083 217.7 348.603 217.7C348.767 217.7 348.934 217.714 349.105 217.741C349.276 217.762 349.416 217.792 349.525 217.833ZM356.867 217.905V219.997H350.407V217.905H356.867ZM352.007 215.167H354.96V225.657C354.96 225.979 355.001 226.225 355.083 226.396C355.172 226.566 355.302 226.686 355.473 226.754C355.644 226.816 355.859 226.847 356.119 226.847C356.303 226.847 356.467 226.84 356.611 226.826C356.761 226.806 356.888 226.785 356.99 226.765L357 228.938C356.748 229.021 356.474 229.085 356.18 229.133C355.886 229.181 355.562 229.205 355.206 229.205C354.557 229.205 353.989 229.099 353.504 228.887C353.025 228.668 352.656 228.32 352.396 227.841C352.137 227.363 352.007 226.734 352.007 225.955V215.167ZM370.084 214.07V229H367.019V214.07H370.084ZM374.678 214.07V216.48H362.497V214.07H374.678ZM373.991 223.565V223.35C373.991 222.537 374.107 221.788 374.34 221.104C374.572 220.414 374.911 219.816 375.355 219.31C375.799 218.804 376.346 218.411 376.996 218.131C377.645 217.844 378.39 217.7 379.231 217.7C380.072 217.7 380.82 217.844 381.477 218.131C382.133 218.411 382.683 218.804 383.127 219.31C383.579 219.816 383.92 220.414 384.153 221.104C384.385 221.788 384.501 222.537 384.501 223.35V223.565C384.501 224.372 384.385 225.121 384.153 225.811C383.92 226.495 383.579 227.093 383.127 227.605C382.683 228.111 382.136 228.504 381.487 228.785C380.837 229.065 380.092 229.205 379.251 229.205C378.411 229.205 377.662 229.065 377.006 228.785C376.356 228.504 375.806 228.111 375.355 227.605C374.911 227.093 374.572 226.495 374.34 225.811C374.107 225.121 373.991 224.372 373.991 223.565ZM376.944 223.35V223.565C376.944 224.03 376.985 224.464 377.067 224.868C377.149 225.271 377.279 225.626 377.457 225.934C377.642 226.235 377.881 226.471 378.175 226.642C378.469 226.812 378.828 226.898 379.251 226.898C379.662 226.898 380.014 226.812 380.308 226.642C380.602 226.471 380.837 226.235 381.015 225.934C381.193 225.626 381.323 225.271 381.405 224.868C381.494 224.464 381.538 224.03 381.538 223.565V223.35C381.538 222.899 381.494 222.475 381.405 222.079C381.323 221.675 381.189 221.32 381.005 221.012C380.827 220.698 380.591 220.452 380.297 220.274C380.003 220.096 379.648 220.007 379.231 220.007C378.814 220.007 378.458 220.096 378.165 220.274C377.877 220.452 377.642 220.698 377.457 221.012C377.279 221.32 377.149 221.675 377.067 222.079C376.985 222.475 376.944 222.899 376.944 223.35ZM385.845 223.565V223.35C385.845 222.537 385.961 221.788 386.193 221.104C386.426 220.414 386.764 219.816 387.208 219.31C387.653 218.804 388.2 218.411 388.849 218.131C389.499 217.844 390.244 217.7 391.084 217.7C391.925 217.7 392.674 217.844 393.33 218.131C393.986 218.411 394.537 218.804 394.981 219.31C395.432 219.816 395.774 220.414 396.006 221.104C396.239 221.788 396.355 222.537 396.355 223.35V223.565C396.355 224.372 396.239 225.121 396.006 225.811C395.774 226.495 395.432 227.093 394.981 227.605C394.537 228.111 393.99 228.504 393.34 228.785C392.691 229.065 391.946 229.205 391.105 229.205C390.264 229.205 389.516 229.065 388.859 228.785C388.21 228.504 387.66 228.111 387.208 227.605C386.764 227.093 386.426 226.495 386.193 225.811C385.961 225.121 385.845 224.372 385.845 223.565ZM388.798 223.35V223.565C388.798 224.03 388.839 224.464 388.921 224.868C389.003 225.271 389.133 225.626 389.311 225.934C389.495 226.235 389.734 226.471 390.028 226.642C390.322 226.812 390.681 226.898 391.105 226.898C391.515 226.898 391.867 226.812 392.161 226.642C392.455 226.471 392.691 226.235 392.869 225.934C393.046 225.626 393.176 225.271 393.258 224.868C393.347 224.464 393.392 224.03 393.392 223.565V223.35C393.392 222.899 393.347 222.475 393.258 222.079C393.176 221.675 393.043 221.32 392.858 221.012C392.681 220.698 392.445 220.452 392.151 220.274C391.857 220.096 391.501 220.007 391.084 220.007C390.667 220.007 390.312 220.096 390.018 220.274C389.731 220.452 389.495 220.698 389.311 221.012C389.133 221.32 389.003 221.675 388.921 222.079C388.839 222.475 388.798 222.899 388.798 223.35ZM401.287 213.25V229H398.324V213.25H401.287Z" fill="#CBDEFB"/>
<rect x="24" y="214" width="133" height="37" rx="5" fill="#0C64E9"/>
<path d="M74.9165 240H71.666L71.6865 237.601H74.9165C75.7231 237.601 76.4033 237.419 76.957 237.057C77.5107 236.688 77.9277 236.151 78.208 235.447C78.4951 234.743 78.6387 233.892 78.6387 232.894V232.166C78.6387 231.4 78.5566 230.727 78.3926 230.146C78.2354 229.565 77.9995 229.076 77.6851 228.68C77.3706 228.283 76.9844 227.986 76.5264 227.788C76.0684 227.583 75.542 227.48 74.9473 227.48H71.6045V225.07H74.9473C75.9453 225.07 76.8579 225.241 77.6851 225.583C78.519 225.918 79.2402 226.4 79.8486 227.029C80.457 227.658 80.9253 228.41 81.2534 229.285C81.5884 230.153 81.7559 231.12 81.7559 232.187V232.894C81.7559 233.954 81.5884 234.921 81.2534 235.796C80.9253 236.671 80.457 237.423 79.8486 238.052C79.2471 238.674 78.5259 239.156 77.6851 239.498C76.8511 239.833 75.9282 240 74.9165 240ZM73.4092 225.07V240H70.333V225.07H73.4092ZM96.1421 225.07V240H93.0659L87.0674 229.992V240H83.9912V225.07H87.0674L93.0762 235.088V225.07H96.1421ZM106.591 236.093C106.591 235.827 106.55 235.587 106.468 235.375C106.393 235.157 106.249 234.958 106.037 234.781C105.825 234.596 105.528 234.415 105.145 234.237C104.762 234.06 104.267 233.875 103.658 233.684C102.981 233.465 102.339 233.219 101.73 232.945C101.129 232.672 100.596 232.354 100.131 231.992C99.6729 231.623 99.3105 231.195 99.0439 230.71C98.7842 230.225 98.6543 229.661 98.6543 229.018C98.6543 228.396 98.791 227.832 99.0645 227.326C99.3379 226.813 99.7207 226.376 100.213 226.014C100.705 225.645 101.286 225.361 101.956 225.163C102.633 224.964 103.375 224.865 104.181 224.865C105.282 224.865 106.242 225.063 107.062 225.46C107.883 225.856 108.519 226.4 108.97 227.09C109.428 227.781 109.657 228.57 109.657 229.459H106.601C106.601 229.021 106.509 228.639 106.324 228.311C106.146 227.976 105.873 227.712 105.504 227.521C105.142 227.33 104.684 227.234 104.13 227.234C103.597 227.234 103.152 227.316 102.797 227.48C102.441 227.637 102.175 227.853 101.997 228.126C101.819 228.393 101.73 228.693 101.73 229.028C101.73 229.281 101.792 229.51 101.915 229.715C102.045 229.92 102.236 230.112 102.489 230.29C102.742 230.467 103.053 230.635 103.422 230.792C103.792 230.949 104.219 231.103 104.704 231.253C105.518 231.5 106.232 231.776 106.847 232.084C107.469 232.392 107.989 232.737 108.406 233.12C108.823 233.502 109.137 233.937 109.349 234.422C109.561 234.907 109.667 235.458 109.667 236.073C109.667 236.722 109.541 237.303 109.288 237.816C109.035 238.329 108.669 238.763 108.19 239.118C107.712 239.474 107.141 239.744 106.478 239.928C105.815 240.113 105.073 240.205 104.253 240.205C103.515 240.205 102.787 240.109 102.069 239.918C101.351 239.72 100.698 239.422 100.11 239.026C99.5293 238.629 99.0645 238.124 98.7158 237.508C98.3672 236.893 98.1929 236.165 98.1929 235.324H101.279C101.279 235.789 101.351 236.182 101.495 236.503C101.638 236.825 101.84 237.084 102.1 237.283C102.366 237.481 102.681 237.625 103.043 237.713C103.412 237.802 103.815 237.847 104.253 237.847C104.786 237.847 105.224 237.771 105.565 237.621C105.914 237.471 106.17 237.262 106.334 236.996C106.505 236.729 106.591 236.428 106.591 236.093Z" fill="#CBDEFB"/>
</svg>
