<?xml version="1.0" encoding="utf-8"?>
<svg width="342" height="112" viewBox="-4.981 8.575 348.831 85.079" fill="none" xmlns="http://www.w3.org/2000/svg">
  <path d="M123.295 15.675H90.325V85.5H101.245V57.99H123.295C138.835 57.99 145.03 48.12 145.03 36.78C145.03 25.65 138.835 15.675 123.295 15.675ZM101.245 49.275V24.39H120.67C130.54 24.39 133.69 29.64 133.69 36.78C133.69 43.92 130.54 49.275 120.67 49.275H101.245ZM163.928 85.5V12H153.428V85.5H163.928ZM190.332 86.865C201.462 86.865 207.237 80.25 209.337 73.635C209.337 77.835 209.547 81.405 209.967 85.5H219.522C219.102 80.565 218.997 77.415 218.997 73.53V47.49C218.997 37.83 211.857 31.215 197.367 31.215C182.457 31.215 174.162 38.25 174.057 49.38H184.557C185.082 42.765 189.177 39.3 197.787 39.3C206.817 39.3 209.337 42.555 209.337 47.28C209.337 50.955 207.027 52.53 201.987 53.37L188.862 55.575C177.102 57.57 172.902 63.03 172.902 71.43C172.902 81.09 179.622 86.865 190.332 86.865ZM192.537 78.78C187.077 78.78 183.402 76.05 183.402 71.01C183.402 66.18 186.237 63.66 192.747 62.19L199.992 60.51C203.142 59.775 206.502 58.935 209.337 56.835V59.985C209.337 70.485 203.562 78.78 192.537 78.78ZM258.869 31.32C248.789 31.32 243.014 36.99 239.864 44.76V33H229.364V85.5H239.864V63.345C239.864 46.65 245.534 40.035 255.824 40.035C262.439 40.035 267.479 42.66 267.479 53.685V85.5H277.979V52.74C277.979 38.985 272.834 31.32 258.869 31.32ZM311.585 79.41C302.555 79.41 295.835 75.42 294.995 62.19H336.365C336.575 60.825 336.575 59.565 336.575 58.2C336.575 43.185 327.965 31.32 311.27 31.32C293.315 31.32 284.705 43.815 284.705 59.145C284.705 74.685 292.58 87.18 311.27 87.18C329.75 87.18 335.525 76.89 336.47 69.645H326.81C325.34 75.105 321.14 79.41 311.585 79.41ZM311.375 39.09C320.72 39.09 325.97 43.92 326.495 54.525H295.1C296.36 42.87 302.345 39.09 311.375 39.09Z" style="fill: rgb(70, 70, 70);"/>
  <rect x="0.463867" y="16" width="10" height="10" rx="4" style="fill: rgb(70, 70, 70);"/>
  <rect x="15.4639" y="16" width="20" height="10" rx="4" style="fill: rgb(70, 70, 70);"/>
  <rect x="40.4639" y="16" width="30" height="10" rx="4" style="fill: rgb(70, 70, 70);"/>
  <rect x="0.463867" y="31" width="10" height="20" rx="4" style="fill: rgb(70, 70, 70);"/>
  <rect x="15.4639" y="31" width="20" height="20" rx="4" style="fill: rgb(70, 70, 70);"/>
  <rect x="40.4639" y="31" width="30" height="20" rx="4" style="fill: rgb(70, 70, 70);"/>
  <rect x="0.463867" y="56" width="10" height="30" rx="4" style="fill: rgb(70, 70, 70);"/>
  <rect x="15.4639" y="56" width="20" height="30" rx="4" style="fill: rgb(70, 70, 70);"/>
  <rect x="40.4639" y="56" width="30" height="30" rx="4" style="fill: rgb(70, 70, 70);"/>
</svg>